<svg width="128" height="128" viewBox="0 0 128 128" fill="none" xmlns="http://www.w3.org/2000/svg">
<ellipse cx="52" cy="118.5" rx="47" ry="4.5" fill="url(#paint0_radial_1_2)" fill-opacity="0.24"/>
<ellipse cx="93.1518" cy="111.18" rx="27.1518" ry="7.18023" fill="url(#paint1_radial_1_2)" fill-opacity="0.2"/>
<path d="M99 65H120C122.209 65 124 66.7909 124 69V90C124 92.2091 122.209 94 120 94H99V65Z" fill="#535353" fill-opacity="0.8"/>
<path d="M99.5 66.5H120C121.381 66.5 122.5 67.6193 122.5 69V90C122.5 91.3807 121.381 92.5 120 92.5H99.5V66.5Z" fill="url(#paint2_linear_1_2)" stroke="url(#paint3_linear_1_2)"/>
<rect x="4.5" y="32.5" width="94" height="86" rx="3.5" stroke="#535353" stroke-opacity="0.8"/>
<rect x="5.5" y="33.5" width="92" height="84" rx="2.5" fill="url(#paint4_linear_1_2)" stroke="url(#paint5_linear_1_2)"/>
<rect x="11" y="42" width="81" height="48" rx="4" fill="url(#paint6_linear_1_2)"/>
<rect x="11.5" y="42.5" width="80" height="47" rx="3.5" stroke="url(#paint7_linear_1_2)" stroke-opacity="0.9"/>
<path d="M11 46V86C11 88.2091 12.7909 90 15 90H29.4445L77.4 42H15C12.7909 42 11 43.7909 11 46Z" fill="white" fill-opacity="0.1"/>
<path d="M105 49H117V73C117 76.3137 114.314 79 111 79V79C107.686 79 105 76.3137 105 73V49Z" fill="#555761" fill-opacity="0.8"/>
<path d="M106 48H116V73C116 75.7614 113.761 78 111 78V78C108.239 78 106 75.7614 106 73V48Z" fill="url(#paint8_radial_1_2)"/>
<path d="M107 47H115V73C115 75.2091 113.209 77 111 77V77C108.791 77 107 75.2091 107 73V47Z" fill="url(#paint9_linear_1_2)"/>
<circle cx="111" cy="38" r="17" fill="#007367" fill-opacity="0.8"/>
<circle cx="111" cy="38" r="15.5" fill="url(#paint10_radial_1_2)" stroke="url(#paint11_radial_1_2)"/>
<ellipse cx="18.5412" cy="104.523" rx="5.54118" ry="5.52326" fill="#686970"/>
<circle cx="18.5" cy="103.5" r="5.5" fill="#424242"/>
<circle cx="18.5" cy="103.5" r="4.5" fill="#555761"/>
<path d="M23.8246 57.5455H21.2592L16.9041 60.392V62.9148L21.0803 60.1875H21.1825V75H23.8246V57.5455ZM28.5462 75H40.0348V72.7415H32.1768V72.6136L35.6456 68.983C38.8416 65.7528 39.7536 64.2102 39.7536 62.2585C39.7536 59.4545 37.4695 57.3068 34.1797 57.3068C30.9155 57.3068 28.5291 59.4205 28.5291 62.608H31.0433C31.0348 60.733 32.245 59.5057 34.1286 59.5057C35.9013 59.5057 37.2479 60.5966 37.2479 62.3352C37.2479 63.8778 36.3274 64.9858 34.4524 66.9716L28.5462 73.0909V75ZM49.3416 75.2386C52.9041 75.2386 55.5206 73.108 55.5121 70.2102C55.5206 68.0028 54.1825 66.4176 51.8643 66.0597V65.9233C53.6882 65.4545 54.8729 64.0227 54.8643 62.0625C54.8729 59.4972 52.7678 57.3068 49.4098 57.3068C46.2053 57.3068 43.6314 59.2415 43.5462 62.0795H46.0945C46.1541 60.4773 47.6626 59.5057 49.3757 59.5057C51.157 59.5057 52.3246 60.5881 52.3161 62.1989C52.3246 63.8864 50.9695 64.9943 49.0348 64.9943H47.5604V67.142H49.0348C51.4553 67.142 52.853 68.3693 52.853 70.125C52.853 71.821 51.3786 72.9716 49.3246 72.9716C47.4325 72.9716 45.9581 72 45.8558 70.4489H43.1797C43.2905 73.2955 45.8132 75.2386 49.3416 75.2386ZM64.5376 57.3068C60.8729 57.2727 58.478 59.9062 58.478 63.2131C58.4865 66.5455 60.8984 68.9489 63.924 68.9489C65.7734 68.9489 67.3587 68.0455 68.2536 66.5795H68.3899C68.3814 70.5938 66.8729 72.9375 64.3161 72.9375C62.6456 72.9375 61.5717 71.9148 61.2308 70.4233H58.6314C59.0149 73.2443 61.1967 75.2386 64.3161 75.2386C68.3729 75.2386 70.9126 71.7528 70.9126 65.642C70.9041 59.267 67.6484 57.3324 64.5376 57.3068ZM64.5462 59.5227C66.5661 59.5227 68.0575 61.2358 68.0575 63.1534C68.0661 65.0966 66.4893 66.8011 64.495 66.8011C62.4922 66.8011 61.0433 65.1989 61.0348 63.179C61.0348 61.1506 62.5433 59.5227 64.5462 59.5227ZM79.8892 75.2386C83.5199 75.2386 86.0852 73.1761 86.1023 70.3466C86.0852 68.1477 84.5426 66.2983 82.5909 65.9489V65.8466C84.2869 65.4375 85.4375 63.8438 85.4545 61.9602C85.4375 59.2926 83.0852 57.3068 79.8892 57.3068C76.6591 57.3068 74.3068 59.2926 74.3239 61.9602C74.3068 63.8352 75.4574 65.4375 77.1875 65.8466V65.9489C75.2017 66.2983 73.6591 68.1477 73.6761 70.3466C73.6591 73.1761 76.2244 75.2386 79.8892 75.2386ZM79.8892 73.0824C77.7074 73.0824 76.3267 71.9233 76.3438 70.1761C76.3267 68.3608 77.8267 67.0653 79.8892 67.0653C81.9176 67.0653 83.4176 68.3608 83.4347 70.1761C83.4176 71.9233 82.0455 73.0824 79.8892 73.0824ZM79.8892 64.9602C78.125 64.9602 76.8722 63.8438 76.8892 62.1818C76.8722 60.5455 78.0824 59.4631 79.8892 59.4631C81.6619 59.4631 82.8722 60.5455 82.8892 62.1818C82.8722 63.8438 81.6278 64.9602 79.8892 64.9602Z" fill="#565656"/>
<path d="M23.8246 56.5455H21.2592L16.9041 59.392V61.9148L21.0803 59.1875H21.1825V74H23.8246V56.5455ZM28.5462 74H40.0348V71.7415H32.1768V71.6136L35.6456 67.983C38.8416 64.7528 39.7536 63.2102 39.7536 61.2585C39.7536 58.4545 37.4695 56.3068 34.1797 56.3068C30.9155 56.3068 28.5291 58.4205 28.5291 61.608H31.0433C31.0348 59.733 32.245 58.5057 34.1286 58.5057C35.9013 58.5057 37.2479 59.5966 37.2479 61.3352C37.2479 62.8778 36.3274 63.9858 34.4524 65.9716L28.5462 72.0909V74ZM49.3416 74.2386C52.9041 74.2386 55.5206 72.108 55.5121 69.2102C55.5206 67.0028 54.1825 65.4176 51.8643 65.0597V64.9233C53.6882 64.4545 54.8729 63.0227 54.8643 61.0625C54.8729 58.4972 52.7678 56.3068 49.4098 56.3068C46.2053 56.3068 43.6314 58.2415 43.5462 61.0795H46.0945C46.1541 59.4773 47.6626 58.5057 49.3757 58.5057C51.157 58.5057 52.3246 59.5881 52.3161 61.1989C52.3246 62.8864 50.9695 63.9943 49.0348 63.9943H47.5604V66.142H49.0348C51.4553 66.142 52.853 67.3693 52.853 69.125C52.853 70.821 51.3786 71.9716 49.3246 71.9716C47.4325 71.9716 45.9581 71 45.8558 69.4489H43.1797C43.2905 72.2955 45.8132 74.2386 49.3416 74.2386ZM64.5376 56.3068C60.8729 56.2727 58.478 58.9062 58.478 62.2131C58.4865 65.5455 60.8984 67.9489 63.924 67.9489C65.7734 67.9489 67.3587 67.0455 68.2536 65.5795H68.3899C68.3814 69.5938 66.8729 71.9375 64.3161 71.9375C62.6456 71.9375 61.5717 70.9148 61.2308 69.4233H58.6314C59.0149 72.2443 61.1967 74.2386 64.3161 74.2386C68.3729 74.2386 70.9126 70.7528 70.9126 64.642C70.9041 58.267 67.6484 56.3324 64.5376 56.3068ZM64.5462 58.5227C66.5661 58.5227 68.0575 60.2358 68.0575 62.1534C68.0661 64.0966 66.4893 65.8011 64.495 65.8011C62.4922 65.8011 61.0433 64.1989 61.0348 62.179C61.0348 60.1506 62.5433 58.5227 64.5462 58.5227ZM79.8892 74.2386C83.5199 74.2386 86.0852 72.1761 86.1023 69.3466C86.0852 67.1477 84.5426 65.2983 82.5909 64.9489V64.8466C84.2869 64.4375 85.4375 62.8438 85.4545 60.9602C85.4375 58.2926 83.0852 56.3068 79.8892 56.3068C76.6591 56.3068 74.3068 58.2926 74.3239 60.9602C74.3068 62.8352 75.4574 64.4375 77.1875 64.8466V64.9489C75.2017 65.2983 73.6591 67.1477 73.6761 69.3466C73.6591 72.1761 76.2244 74.2386 79.8892 74.2386ZM79.8892 72.0824C77.7074 72.0824 76.3267 70.9233 76.3438 69.1761C76.3267 67.3608 77.8267 66.0653 79.8892 66.0653C81.9176 66.0653 83.4176 67.3608 83.4347 69.1761C83.4176 70.9233 82.0455 72.0824 79.8892 72.0824ZM79.8892 63.9602C78.125 63.9602 76.8722 62.8438 76.8892 61.1818C76.8722 59.5455 78.0824 58.4631 79.8892 58.4631C81.6619 58.4631 82.8722 59.5455 82.8892 61.1818C82.8722 62.8438 81.6278 63.9602 79.8892 63.9602Z" fill="white"/>
<rect x="30" y="103" width="61" height="3" rx="1" fill="#D4D4D4"/>
<path d="M30 104C30 103.448 30.4477 103 31 103H90C90.5523 103 91 103.448 91 104V104C91 104.552 90.5523 105 90 105H31C30.4477 105 30 104.552 30 104V104Z" fill="#555761"/>
<defs>
<radialGradient id="paint0_radial_1_2" cx="0" cy="0" r="1" gradientUnits="userSpaceOnUse" gradientTransform="translate(52 118.5) rotate(90) scale(4.5 47)">
<stop/>
<stop offset="1" stop-opacity="0"/>
</radialGradient>
<radialGradient id="paint1_radial_1_2" cx="0" cy="0" r="1" gradientUnits="userSpaceOnUse" gradientTransform="translate(93.1518 111.18) rotate(90) scale(7.18023 27.1518)">
<stop/>
<stop offset="1" stop-opacity="0"/>
</radialGradient>
<linearGradient id="paint2_linear_1_2" x1="111" y1="66" x2="111" y2="93" gradientUnits="userSpaceOnUse">
<stop stop-color="#FAFAFA"/>
<stop offset="0.3125" stop-color="#C5C5C6"/>
<stop offset="0.703125" stop-color="#ABACAE"/>
<stop offset="1" stop-color="#7E8087"/>
</linearGradient>
<linearGradient id="paint3_linear_1_2" x1="111" y1="66" x2="111" y2="93" gradientUnits="userSpaceOnUse">
<stop stop-color="#FAFAFA"/>
<stop offset="0.1875" stop-color="#D4D4D4"/>
<stop offset="0.614583" stop-color="#ABACAE"/>
<stop offset="0.9375" stop-color="#7E8087"/>
</linearGradient>
<linearGradient id="paint4_linear_1_2" x1="51.5" y1="33" x2="51.5" y2="118" gradientUnits="userSpaceOnUse">
<stop stop-color="#D4D4D4"/>
<stop offset="1" stop-color="#ABACAE"/>
</linearGradient>
<linearGradient id="paint5_linear_1_2" x1="51.5" y1="33" x2="51.5" y2="118" gradientUnits="userSpaceOnUse">
<stop stop-color="#FAFAFA"/>
<stop offset="0.156065" stop-color="#D3D3D3"/>
<stop offset="0.794257" stop-color="#ACADAF"/>
<stop offset="1" stop-color="#7E8087"/>
</linearGradient>
<linearGradient id="paint6_linear_1_2" x1="51.5" y1="42" x2="51.5" y2="90" gradientUnits="userSpaceOnUse">
<stop stop-color="#333333"/>
<stop offset="1" stop-color="#1A1A1A"/>
</linearGradient>
<linearGradient id="paint7_linear_1_2" x1="51.5" y1="42" x2="51.5" y2="90" gradientUnits="userSpaceOnUse">
<stop stop-opacity="0.9"/>
<stop offset="1" stop-color="#1A1A1A" stop-opacity="0.9"/>
</linearGradient>
<radialGradient id="paint8_radial_1_2" cx="0" cy="0" r="1" gradientUnits="userSpaceOnUse" gradientTransform="translate(111 78) rotate(-90) scale(15.9375 52.3067)">
<stop offset="0.223958" stop-color="#95979B"/>
<stop offset="1" stop-color="#D4D4D4"/>
</radialGradient>
<linearGradient id="paint9_linear_1_2" x1="111" y1="51.2187" x2="111" y2="77" gradientUnits="userSpaceOnUse">
<stop offset="0.348958" stop-color="#D4D4D4"/>
<stop offset="1" stop-color="#ABACAE"/>
</linearGradient>
<radialGradient id="paint10_radial_1_2" cx="0" cy="0" r="1" gradientUnits="userSpaceOnUse" gradientTransform="translate(111 27.5385) rotate(90) scale(22.1538 34.3478)">
<stop stop-color="#43D6B5"/>
<stop offset="1" stop-color="#0E9A83"/>
</radialGradient>
<radialGradient id="paint11_radial_1_2" cx="0" cy="0" r="1" gradientUnits="userSpaceOnUse" gradientTransform="translate(111 28.1538) rotate(90) scale(25.8462)">
<stop stop-color="#89FFDD"/>
<stop offset="0.354167" stop-color="#43D6B5"/>
<stop offset="1" stop-color="#0E9A83"/>
</radialGradient>
</defs>
</svg>
