<svg width="128" height="128" viewBox="0 0 128 128" fill="none" xmlns="http://www.w3.org/2000/svg">
<g clip-path="url(#clip0_5:33)">
<path opacity="0.2" d="M112 114.003C112.001 115.842 110.761 117.662 108.349 119.361C105.937 121.059 102.402 122.603 97.9444 123.903C93.4871 125.203 88.1952 126.234 82.3709 126.938C76.5467 127.641 70.3042 128.003 64 128.003C57.6958 128.003 51.4533 127.641 45.629 126.938C39.8048 126.234 34.5129 125.203 30.0556 123.903C25.5983 122.603 22.0628 121.059 19.6511 119.361C17.2394 117.662 15.9988 115.842 16 114.003C15.9988 112.165 17.2394 110.345 19.6511 108.646C22.0628 106.948 25.5983 105.404 30.0556 104.104C34.5129 102.804 39.8048 101.773 45.629 101.069C51.4533 100.366 57.6958 100.004 64 100.004C70.3042 100.004 76.5467 100.366 82.3709 101.069C88.1952 101.773 93.4871 102.804 97.9444 104.104C102.402 105.404 105.937 106.948 108.349 108.646C110.761 110.345 112.001 112.165 112 114.003Z" fill="url(#paint0_radial_5:33)"/>
<path opacity="0.4" d="M96 118.003C96.0011 119.317 95.1741 120.617 93.5664 121.83C91.9588 123.043 89.6018 124.146 86.6303 125.075C83.6587 126.003 80.1307 126.74 76.2477 127.242C72.3648 127.745 68.203 128.004 64 128.004C59.797 128.004 55.6352 127.745 51.7523 127.242C47.8693 126.74 44.3413 126.003 41.3698 125.075C38.3982 124.146 36.0412 123.043 34.4336 121.83C32.8259 120.617 31.999 119.317 32 118.003C31.999 116.69 32.8259 115.39 34.4336 114.177C36.0412 112.963 38.3982 111.861 41.3698 110.932C44.3413 110.004 47.8693 109.267 51.7523 108.764C55.6352 108.262 59.797 108.003 64 108.003C68.203 108.003 72.3648 108.262 76.2477 108.764C80.1307 109.267 83.6587 110.004 86.6303 110.932C89.6018 111.861 91.9588 112.963 93.5664 114.177C95.1741 115.39 96.0011 116.69 96 118.003Z" fill="url(#paint1_radial_5:33)"/>
<path opacity="0.7" d="M121.5 63.9979C121.5 95.7554 95.7545 121.5 64.0007 121.5C32.2441 121.5 6.5 95.7551 6.5 63.9979C6.5 32.242 32.244 6.5 64.0007 6.5C95.7545 6.5 121.5 32.242 121.5 63.9979Z" stroke="url(#paint2_linear_5:33)" stroke-linecap="round" stroke-linejoin="round"/>
<path opacity="0.5" d="M5.5 64C5.5 31.722 31.722 5.5 64 5.5C96.278 5.5 122.5 31.722 122.5 64C122.5 96.278 96.278 122.5 64 122.5C31.722 122.5 5.5 96.278 5.5 64Z" stroke="#555761" stroke-linecap="round" stroke-linejoin="round"/>
<path d="M64.0016 110C38.5957 110 18 89.4036 18 64.0006C18 38.5952 38.5959 18 64.0016 18C89.4064 18 110 38.5952 110 64.0006C110 89.4036 89.4064 110 64.0016 110Z" fill="url(#paint3_linear_5:33)"/>
<path fill-rule="evenodd" clip-rule="evenodd" d="M6 64.9993C6 32.9694 31.9685 7.00002 64.002 7.00002C96.0341 7.00002 122 32.9694 122 64.9993C122 97.0321 96.0341 123 64.002 123C31.9688 123 6 97.0321 6 64.9993ZM18 65.0006C18 90.4036 38.5957 111 64.0016 111C89.4064 111 110 90.4036 110 65.0006C110 39.5952 89.4064 19 64.0016 19C38.5959 19 18 39.5952 18 65.0006Z" fill="black" fill-opacity="0.15"/>
<path d="M64.002 6.00002C31.4163 6.00002 5 32.4171 5 64.9993H7C7 33.5217 32.5208 8.00002 64.002 8.00002V6.00002ZM123 64.9993C123 32.4172 96.5865 6.00002 64.002 6.00002V8.00002C95.4818 8.00002 121 33.5216 121 64.9993H123ZM64.002 124C96.5865 124 123 97.5843 123 64.9993H121C121 96.4798 95.4818 122 64.002 122V124ZM5 64.9993C5 97.5844 31.4165 124 64.002 124V122C32.5211 122 7 96.4798 7 64.9993H5ZM64.0016 110C39.148 110 19 89.8513 19 65.0006H17C17 90.9559 38.0435 112 64.0016 112V110ZM109 65.0006C109 89.8513 88.854 110 64.0016 110V112C89.9587 112 111 90.9558 111 65.0006H109ZM64.0016 20C88.854 20 109 40.1475 109 65.0006H111C111 39.043 89.9587 18 64.0016 18V20ZM19 65.0006C19 40.1476 39.1482 20 64.0016 20V18C38.0437 18 17 39.0429 17 65.0006H19Z" fill="black" fill-opacity="0.07"/>
<path fill-rule="evenodd" clip-rule="evenodd" d="M6 63.9993C6 31.9694 31.9685 6.00002 64.002 6.00002C96.0341 6.00002 122 31.9694 122 63.9993C122 96.0321 96.0341 122 64.002 122C31.9688 122 6 96.0321 6 63.9993ZM18 64.0006C18 89.4036 38.5957 110 64.0016 110C89.4064 110 110 89.4036 110 64.0006C110 38.5952 89.4064 18 64.0016 18C38.5959 18 18 38.5952 18 64.0006Z" fill="url(#paint4_linear_5:33)"/>
<path d="M64.5014 103C43.2377 103 26 85.7617 26 64.5005C26 43.2373 43.2379 26 64.5014 26C85.764 26 103 43.2373 103 64.5005C103 85.7617 85.764 103 64.5014 103Z" stroke="black" stroke-opacity="0.07" stroke-width="2" stroke-linecap="round" stroke-linejoin="round"/>
<path d="M64.5014 102.5C43.5138 102.5 26.5 85.4855 26.5 64.5005C26.5 43.5135 43.514 26.5 64.5014 26.5C85.4879 26.5 102.5 43.5134 102.5 64.5005C102.5 85.4856 85.4879 102.5 64.5014 102.5Z" stroke="black" stroke-opacity="0.15" stroke-linecap="round" stroke-linejoin="round"/>
<path d="M64.5014 102C43.2377 102 26 84.7617 26 63.5005C26 42.2373 43.2379 25 64.5014 25C85.764 25 103 42.2373 103 63.5005C103 84.7617 85.764 102 64.5014 102Z" fill="url(#paint5_linear_5:33)"/>
<path opacity="0.7" d="M64.5014 101.5C43.5138 101.5 26.5 84.4855 26.5 63.5005C26.5 42.5135 43.514 25.5 64.5014 25.5C85.4879 25.5 102.5 42.5134 102.5 63.5005C102.5 84.4856 85.4879 101.5 64.5014 101.5Z" stroke="url(#paint6_linear_5:33)" stroke-opacity="0.5" stroke-linecap="round" stroke-linejoin="round"/>
<g opacity="0.5">
<path opacity="0.5" d="M64 44.0001C60.95 44.0001 58.0249 45.2118 55.8682 47.3684C53.7115 49.5251 52.5 52.4501 52.5 55.5001C52.5 60.2649 55.3559 64.3321 59.4844 66.0762L52.5 90H75.4999L68.5195 66.0762C70.5958 65.1975 72.3661 63.7249 73.6081 61.8432C74.85 59.9615 75.5082 57.7547 75.4999 55.5001C75.4999 52.4501 74.2884 49.5251 72.1317 47.3684C69.9751 45.2118 67.0499 44.0001 64 44.0001Z" fill="white"/>
</g>
<path d="M64 42C60.95 42 58.0249 43.2117 55.8682 45.3683C53.7115 47.525 52.5 50.45 52.5 53.5C52.5 58.2648 55.3559 62.332 59.4844 64.0762L52.5 88H75.5L68.5196 64.0762C70.5959 63.1975 72.3662 61.7248 73.6081 59.8431C74.8501 57.9614 75.5083 55.7546 75.5 53.5C75.5 50.45 74.2885 47.525 72.1318 45.3683C69.9751 43.2117 67.05 42 64 42Z" fill="url(#paint7_linear_5:33)"/>
<path d="M64 43C61.2152 43 58.5445 44.1062 56.5754 46.0754C54.6062 48.0445 53.5 50.7152 53.5 53.5C53.5017 55.7045 54.1972 57.8526 55.488 59.6397C56.7787 61.4268 58.5992 62.7624 60.6914 63.457L53.8906 87H74.1328L67.3164 63.4492C69.4059 62.7537 71.2238 61.4187 72.5129 59.6333C73.8021 57.8478 74.4972 55.7022 74.5 53.5C74.5 50.7152 73.3938 48.0445 71.4246 46.0754C69.4555 44.1062 66.7848 43 64 43Z" stroke="black"/>
</g>
<defs>
<radialGradient id="paint0_radial_5:33" cx="0" cy="0" r="1" gradientUnits="userSpaceOnUse" gradientTransform="translate(64 114) scale(48 14)">
<stop/>
<stop offset="1" stop-opacity="0"/>
</radialGradient>
<radialGradient id="paint1_radial_5:33" cx="0" cy="0" r="1" gradientUnits="userSpaceOnUse" gradientTransform="translate(64 118.001) scale(32 9.9998)">
<stop/>
<stop offset="1" stop-opacity="0"/>
</radialGradient>
<linearGradient id="paint2_linear_5:33" x1="62.3412" y1="8.38377" x2="62.3412" y2="120.199" gradientUnits="userSpaceOnUse">
<stop stop-color="white"/>
<stop offset="0.507761" stop-color="white" stop-opacity="0.235294"/>
<stop offset="0.834566" stop-color="white" stop-opacity="0.156863"/>
<stop offset="1" stop-color="white" stop-opacity="0.392157"/>
</linearGradient>
<linearGradient id="paint3_linear_5:33" x1="64" y1="183.326" x2="64" y2="-42.2673" gradientUnits="userSpaceOnUse">
<stop stop-color="#333333"/>
<stop offset="1" stop-color="#1A1A1A"/>
</linearGradient>
<linearGradient id="paint4_linear_5:33" x1="64" y1="-3.70472" x2="64" y2="132.115" gradientUnits="userSpaceOnUse">
<stop stop-color="#4D4D4D"/>
<stop offset="1" stop-color="#333333"/>
</linearGradient>
<linearGradient id="paint5_linear_5:33" x1="64.5" y1="163.371" x2="64.5" y2="-25.4411" gradientUnits="userSpaceOnUse">
<stop stop-color="#ABACAE"/>
<stop offset="1" stop-color="#555761"/>
</linearGradient>
<linearGradient id="paint6_linear_5:33" x1="63.3989" y1="26.5823" x2="63.3989" y2="100.804" gradientUnits="userSpaceOnUse">
<stop stop-color="white"/>
<stop offset="0.507761" stop-color="white" stop-opacity="0.235294"/>
<stop offset="0.834566" stop-color="white" stop-opacity="0.156863"/>
<stop offset="1" stop-color="white" stop-opacity="0.392157"/>
</linearGradient>
<linearGradient id="paint7_linear_5:33" x1="64" y1="43.4375" x2="64" y2="86.5625" gradientUnits="userSpaceOnUse">
<stop stop-color="#2D2D2D"/>
<stop offset="1" stop-color="#3F3F3F"/>
</linearGradient>
<clipPath id="clip0_5:33">
<rect width="128" height="128" fill="white"/>
</clipPath>
</defs>
</svg>
