<svg width="16" height="16" viewBox="0 0 16 16" fill="none" xmlns="http://www.w3.org/2000/svg">
<path d="M12 8H15C15.5523 8 16 8.44772 16 9V12C16 12.5523 15.5523 13 15 13H12V8Z" fill="#535353" fill-opacity="0.8"/>
<path d="M12 9H15V12H12V9Z" fill="url(#paint0_linear_1:33)"/>
<rect x="1.5" y="5.5" width="10" height="9" rx="1.5" stroke="#535353" stroke-opacity="0.8"/>
<rect x="2" y="6" width="9" height="8" rx="1" fill="url(#paint1_linear_1:33)"/>
<mask id="path-5-inside-1_1:33" fill="white">
<rect x="3" y="7" width="7" height="4" rx="1"/>
</mask>
<rect x="3" y="7" width="7" height="4" rx="1" fill="url(#paint2_linear_1:33)" stroke="url(#paint3_linear_1:33)" stroke-opacity="0.9" stroke-width="4" mask="url(#path-5-inside-1_1:33)"/>
<rect x="6" y="8" width="1" height="2" fill="white"/>
<rect x="8" y="8" width="1" height="2" fill="white"/>
<rect x="4" y="8" width="1" height="2" fill="white"/>
<path d="M13 7H14V10.5C14 10.7761 13.7761 11 13.5 11C13.2239 11 13 10.7761 13 10.5V7Z" fill="url(#paint4_linear_1:33)"/>
<circle cx="13.5" cy="5.5" r="2.5" fill="#007367" fill-opacity="0.8"/>
<circle cx="13.5" cy="5.5" r="1.5" fill="url(#paint5_radial_1:33)"/>
<circle cx="3.5" cy="12.5" r="0.5" fill="#424242"/>
<rect x="5" y="12" width="5" height="1" fill="#555761"/>
<defs>
<linearGradient id="paint0_linear_1:33" x1="13.5" y1="9" x2="13.5" y2="12" gradientUnits="userSpaceOnUse">
<stop stop-color="#FAFAFA"/>
<stop offset="0.3125" stop-color="#C5C5C6"/>
<stop offset="0.703125" stop-color="#ABACAE"/>
<stop offset="1" stop-color="#7E8087"/>
</linearGradient>
<linearGradient id="paint1_linear_1:33" x1="6.5" y1="6" x2="6.5" y2="14" gradientUnits="userSpaceOnUse">
<stop stop-color="#D4D4D4"/>
<stop offset="1" stop-color="#ABACAE"/>
</linearGradient>
<linearGradient id="paint2_linear_1:33" x1="6.5" y1="7" x2="6.5" y2="11" gradientUnits="userSpaceOnUse">
<stop stop-color="#333333"/>
<stop offset="1" stop-color="#1A1A1A"/>
</linearGradient>
<linearGradient id="paint3_linear_1:33" x1="6.5" y1="7" x2="6.5" y2="11" gradientUnits="userSpaceOnUse">
<stop stop-opacity="0.9"/>
<stop offset="1" stop-color="#1A1A1A" stop-opacity="0.9"/>
</linearGradient>
<linearGradient id="paint4_linear_1:33" x1="13.5" y1="7" x2="13.5" y2="11" gradientUnits="userSpaceOnUse">
<stop stop-color="#7E8087"/>
<stop offset="1" stop-color="#555761"/>
</linearGradient>
<radialGradient id="paint5_radial_1:33" cx="0" cy="0" r="1" gradientUnits="userSpaceOnUse" gradientTransform="translate(13.5 4.51923) rotate(90) scale(2.07692 3.2201)">
<stop stop-color="#43D6B5"/>
<stop offset="1" stop-color="#0E9A83"/>
</radialGradient>
</defs>
</svg>
