<svg width="24" height="24" viewBox="0 0 24 24" fill="none" xmlns="http://www.w3.org/2000/svg">
<path d="M18 12H21C22.1046 12 23 12.8954 23 14V17C23 18.1046 22.1046 19 21 19H18V12Z" fill="#535353" fill-opacity="0.8"/>
<path d="M18 13H21C21.5523 13 22 13.4477 22 14V17C22 17.5523 21.5523 18 21 18H18V13Z" fill="url(#paint0_linear_1_32)"/>
<rect x="0.5" y="4.5" width="17" height="17" rx="1.5" stroke="#535353" stroke-opacity="0.8"/>
<rect x="1" y="5" width="16" height="16" rx="1" fill="url(#paint1_linear_1_32)"/>
<rect x="2" y="7" width="14" height="9" rx="1" fill="url(#paint2_linear_1_32)"/>
<rect x="2.5" y="7.5" width="13" height="8" rx="0.5" stroke="url(#paint3_linear_1_32)" stroke-opacity="0.9"/>
<circle cx="3.5" cy="18.5" r="0.5" fill="#424242"/>
<path d="M5.40336 8.90909H4.39165L3.13135 9.70703V10.6616L4.29719 9.93075H4.32702V14H5.40336V8.90909ZM6.61333 14H10.2426V13.12H8.1048V13.0852L8.84806 12.3569C9.89458 11.4023 10.1755 10.9251 10.1755 10.3459C10.1755 9.46342 9.45459 8.83949 8.36333 8.83949C7.29443 8.83949 6.56112 9.47834 6.56361 10.4776H7.58527C7.58279 9.99041 7.89102 9.69212 8.35587 9.69212C8.80331 9.69212 9.13641 9.97053 9.13641 10.418C9.13641 10.8232 8.88783 11.1016 8.42547 11.5465L6.61333 13.2244V14ZM12.9043 14.0696C14.0477 14.0696 14.8655 13.4407 14.8631 12.5707C14.8655 11.9368 14.4628 11.4844 13.7146 11.3899V11.3501C14.2839 11.2482 14.6766 10.8455 14.6741 10.2738C14.6766 9.47088 13.9731 8.83949 12.9192 8.83949C11.8751 8.83949 11.0896 9.45099 11.0747 10.331H12.1063C12.1187 9.94318 12.4742 9.69212 12.9142 9.69212C13.3492 9.69212 13.64 9.95561 13.6376 10.3384C13.64 10.7386 13.2995 11.0096 12.8098 11.0096H12.335V11.8001H12.8098C13.3865 11.8001 13.7469 12.0884 13.7445 12.4986C13.7469 12.9038 13.3989 13.1822 12.9067 13.1822C12.432 13.1822 12.0765 12.9336 12.0566 12.5607H10.9728C10.9902 13.4506 11.7856 14.0696 12.9043 14.0696Z" fill="white"/>
<rect x="5" y="18" width="10" height="1" rx="0.5" fill="#555761"/>
<path d="M19 8H21V14C21 14.5523 20.5523 15 20 15C19.4477 15 19 14.5523 19 14V8Z" fill="url(#paint4_linear_1_32)"/>
<circle cx="20" cy="7" r="4" fill="#007367" fill-opacity="0.8"/>
<circle cx="20" cy="7" r="3" fill="url(#paint5_radial_1_32)"/>
<defs>
<linearGradient id="paint0_linear_1_32" x1="20" y1="13" x2="20" y2="18" gradientUnits="userSpaceOnUse">
<stop stop-color="#FAFAFA"/>
<stop offset="0.3125" stop-color="#C5C5C6"/>
<stop offset="0.703125" stop-color="#ABACAE"/>
<stop offset="1" stop-color="#7E8087"/>
</linearGradient>
<linearGradient id="paint1_linear_1_32" x1="9" y1="5" x2="9" y2="21" gradientUnits="userSpaceOnUse">
<stop stop-color="#D4D4D4"/>
<stop offset="1" stop-color="#ABACAE"/>
</linearGradient>
<linearGradient id="paint2_linear_1_32" x1="9" y1="7" x2="9" y2="16" gradientUnits="userSpaceOnUse">
<stop stop-color="#333333"/>
<stop offset="1" stop-color="#1A1A1A"/>
</linearGradient>
<linearGradient id="paint3_linear_1_32" x1="9" y1="7" x2="9" y2="16" gradientUnits="userSpaceOnUse">
<stop stop-opacity="0.9"/>
<stop offset="1" stop-color="#1A1A1A" stop-opacity="0.9"/>
</linearGradient>
<linearGradient id="paint4_linear_1_32" x1="20" y1="8" x2="20" y2="15" gradientUnits="userSpaceOnUse">
<stop offset="0.40625" stop-color="#ABACAE"/>
<stop offset="1" stop-color="#7E8087"/>
</linearGradient>
<radialGradient id="paint5_radial_1_32" cx="0" cy="0" r="1" gradientUnits="userSpaceOnUse" gradientTransform="translate(20 5.03846) rotate(90) scale(4.15385 6.44021)">
<stop stop-color="#43D6B5"/>
<stop offset="1" stop-color="#0E9A83"/>
</radialGradient>
</defs>
</svg>
