<svg width="24" height="24" viewBox="0 0 24 24" fill="none" xmlns="http://www.w3.org/2000/svg">
<path d="M18 12H21C22.1046 12 23 12.8954 23 14V17C23 18.1046 22.1046 19 21 19H18V12Z" fill="#535353" fill-opacity="0.8"/>
<path d="M18 13H21C21.5523 13 22 13.4477 22 14V17C22 17.5523 21.5523 18 21 18H18V13Z" fill="url(#paint0_linear_1_32)"/>
<rect x="0.5" y="6.5" width="17" height="15" rx="1.5" stroke="#535353" stroke-opacity="0.8"/>
<rect x="1" y="7" width="16" height="14" rx="1" fill="url(#paint1_linear_1_32)"/>
<rect x="2" y="9" width="14" height="7" rx="1" fill="url(#paint2_linear_1_32)"/>
<rect x="2.5" y="9.5" width="13" height="6" rx="0.5" stroke="url(#paint3_linear_1_32)" stroke-opacity="0.9"/>
<circle cx="3.5" cy="18.5" r="0.5" fill="#424242"/>
<path d="M5.91717 10.6364H5.04998L3.96973 11.3203V12.1385L4.96902 11.5121H4.99458V15H5.91717V10.6364ZM6.95428 15H10.0651V14.2457H8.23269V14.2159L8.86976 13.5916C9.76678 12.7734 10.0075 12.3643 10.0075 11.8679C10.0075 11.1115 9.38965 10.5767 8.45428 10.5767C7.53809 10.5767 6.90953 11.1243 6.91167 11.9808H7.78738C7.78525 11.5632 8.04945 11.3075 8.44789 11.3075C8.83141 11.3075 9.11692 11.5462 9.11692 11.9297C9.11692 12.277 8.90385 12.5156 8.50755 12.897L6.95428 14.3352V15ZM12.3465 15.0597C13.3266 15.0597 14.0276 14.5206 14.0255 13.7749C14.0276 13.2315 13.6824 12.8438 13.0411 12.7628V12.7287C13.529 12.6413 13.8657 12.2962 13.8635 11.8061C13.8657 11.1179 13.2627 10.5767 12.3593 10.5767C11.4644 10.5767 10.7911 11.1009 10.7783 11.8551H11.6626C11.6732 11.5227 11.9779 11.3075 12.355 11.3075C12.7279 11.3075 12.9772 11.5334 12.9751 11.8615C12.9772 12.2045 12.6853 12.4368 12.2655 12.4368H11.8586V13.1143H12.2655C12.7599 13.1143 13.0688 13.3615 13.0667 13.7131C13.0688 14.0604 12.7705 14.299 12.3486 14.299C11.9417 14.299 11.637 14.0859 11.6199 13.7663H10.691C10.7059 14.5291 11.3877 15.0597 12.3465 15.0597Z" fill="white"/>
<rect x="5" y="18" width="10" height="1" rx="0.5" fill="#555761"/>
<path d="M19 8H21V14C21 14.5523 20.5523 15 20 15V15C19.4477 15 19 14.5523 19 14V8Z" fill="url(#paint4_linear_1_32)"/>
<circle cx="20" cy="7" r="4" fill="#007367" fill-opacity="0.8"/>
<circle cx="20" cy="7" r="3" fill="url(#paint5_radial_1_32)"/>
<defs>
<linearGradient id="paint0_linear_1_32" x1="20" y1="13" x2="20" y2="18" gradientUnits="userSpaceOnUse">
<stop stop-color="#FAFAFA"/>
<stop offset="0.3125" stop-color="#C5C5C6"/>
<stop offset="0.703125" stop-color="#ABACAE"/>
<stop offset="1" stop-color="#7E8087"/>
</linearGradient>
<linearGradient id="paint1_linear_1_32" x1="9" y1="7" x2="9" y2="21" gradientUnits="userSpaceOnUse">
<stop stop-color="#D4D4D4"/>
<stop offset="1" stop-color="#ABACAE"/>
</linearGradient>
<linearGradient id="paint2_linear_1_32" x1="9" y1="9" x2="9" y2="16" gradientUnits="userSpaceOnUse">
<stop stop-color="#333333"/>
<stop offset="1" stop-color="#1A1A1A"/>
</linearGradient>
<linearGradient id="paint3_linear_1_32" x1="9" y1="9" x2="9" y2="16" gradientUnits="userSpaceOnUse">
<stop stop-opacity="0.9"/>
<stop offset="1" stop-color="#1A1A1A" stop-opacity="0.9"/>
</linearGradient>
<linearGradient id="paint4_linear_1_32" x1="20" y1="8" x2="20" y2="15" gradientUnits="userSpaceOnUse">
<stop offset="0.40625" stop-color="#ABACAE"/>
<stop offset="1" stop-color="#7E8087"/>
</linearGradient>
<radialGradient id="paint5_radial_1_32" cx="0" cy="0" r="1" gradientUnits="userSpaceOnUse" gradientTransform="translate(20 5.03846) rotate(90) scale(4.15385 6.44021)">
<stop stop-color="#43D6B5"/>
<stop offset="1" stop-color="#0E9A83"/>
</radialGradient>
</defs>
</svg>
