<svg width="24" height="24" viewBox="0 0 24 24" fill="none" xmlns="http://www.w3.org/2000/svg">
<g clip-path="url(#clip0_6:115)">
<path opacity="0.2" d="M21 21.3756C21.0002 21.7203 20.7676 22.0617 20.3154 22.3801C19.8632 22.6986 19.2003 22.988 18.3646 23.2317C17.5288 23.4755 16.5366 23.6689 15.4446 23.8008C14.3525 23.9327 13.182 24.0006 12 24.0006C10.818 24.0006 9.64749 23.9327 8.55545 23.8008C7.4634 23.6689 6.47117 23.4755 5.63542 23.2317C4.79967 22.988 4.13677 22.6986 3.68458 22.3801C3.23239 22.0617 2.99977 21.7203 3 21.3756C2.99977 21.0309 3.23239 20.6896 3.68458 20.3711C4.13677 20.0527 4.79967 19.7633 5.63542 19.5195C6.47117 19.2758 7.4634 19.0824 8.55545 18.9505C9.64749 18.8186 10.818 18.7507 12 18.7507C13.182 18.7507 14.3525 18.8186 15.4446 18.9505C16.5366 19.0824 17.5288 19.2758 18.3646 19.5195C19.2003 19.7633 19.8632 20.0527 20.3154 20.3711C20.7676 20.6896 21.0002 21.0309 21 21.3756Z" fill="url(#paint0_radial_6:115)"/>
<path opacity="0.4" d="M18 22.1256C18.0002 22.3719 17.8451 22.6157 17.5437 22.8432C17.2423 23.0706 16.8003 23.2773 16.2432 23.4515C15.686 23.6256 15.0245 23.7637 14.2964 23.8579C13.5684 23.9522 12.7881 24.0007 12 24.0007C11.2119 24.0007 10.4316 23.9522 9.70355 23.8579C8.9755 23.7637 8.314 23.6256 7.75683 23.4515C7.19966 23.2773 6.75773 23.0706 6.45629 22.8432C6.15485 22.6157 5.9998 22.3719 6 22.1256C5.9998 21.8794 6.15485 21.6356 6.45629 21.4081C6.75773 21.1806 7.19966 20.9739 7.75683 20.7998C8.314 20.6257 8.9755 20.4876 9.70355 20.3933C10.4316 20.2991 11.2119 20.2506 12 20.2506C12.7881 20.2506 13.5684 20.2991 14.2964 20.3933C15.0245 20.4876 15.686 20.6257 16.2432 20.7998C16.8003 20.9739 17.2423 21.1806 17.5437 21.4081C17.8451 21.6356 18.0002 21.8794 18 22.1256Z" fill="url(#paint1_radial_6:115)"/>
<path opacity="0.7" d="M22.5 11.9996C22.5 17.7988 17.7986 22.5 12.0001 22.5C6.20111 22.5 1.5 17.7988 1.5 11.9996C1.5 6.20073 6.20107 1.5 12.0001 1.5C17.7987 1.5 22.5 6.20073 22.5 11.9996Z" stroke="url(#paint2_linear_6:115)" stroke-linecap="round" stroke-linejoin="round"/>
<path opacity="0.5" d="M1.5 12C1.5 6.20672 6.20672 1.5 12 1.5C17.7933 1.5 22.5 6.20672 22.5 12C22.5 17.7933 17.7933 22.5 12 22.5C6.20672 22.5 1.5 17.7933 1.5 12Z" stroke="#555761" stroke-linecap="round" stroke-linejoin="round"/>
<path d="M12.0003 21C7.0296 21 3 16.9703 3 12.0001C3 7.0295 7.02964 3 12.0003 3C16.9708 3 21 7.0295 21 12.0001C21 16.9703 16.9708 21 12.0003 21Z" fill="url(#paint3_linear_6:115)"/>
<path fill-rule="evenodd" clip-rule="evenodd" d="M2 11.9999C2 6.47748 6.47733 2 12.0003 2C17.5231 2 22 6.47748 22 11.9999C22 17.5228 17.5231 22 12.0003 22C6.47738 22 2 17.5228 2 11.9999ZM4.06897 12.0001C4.06897 16.3799 7.61996 19.931 12.0003 19.931C16.3804 19.931 19.931 16.3799 19.931 12.0001C19.931 7.61988 16.3804 4.06897 12.0003 4.06897C7.61999 4.06897 4.06897 7.61988 4.06897 12.0001Z" fill="black" fill-opacity="0.15"/>
<path d="M12.0003 1C5.92507 1 1 5.92518 1 11.9999H3C3 7.02979 7.02959 3 12.0003 3V1ZM23 11.9999C23 5.92525 18.0755 1 12.0003 1V3C16.9708 3 21 7.02971 21 11.9999H23ZM12.0003 23C18.0755 23 23 18.075 23 11.9999H21C21 16.9705 16.9708 21 12.0003 21V23ZM1 11.9999C1 18.0751 5.92512 23 12.0003 23V21C7.02964 21 3 16.9705 3 11.9999H1ZM12.0003 18.931C8.17222 18.931 5.06897 15.8276 5.06897 12.0001H3.06897C3.06897 16.9322 7.06769 20.931 12.0003 20.931V18.931ZM18.931 12.0001C18.931 15.8277 15.8281 18.931 12.0003 18.931V20.931C16.9328 20.931 20.931 16.9322 20.931 12.0001H18.931ZM12.0003 5.06897C15.8281 5.06897 18.931 8.17211 18.931 12.0001H20.931C20.931 7.06765 16.9328 3.06897 12.0003 3.06897V5.06897ZM5.06897 12.0001C5.06897 8.17219 8.17225 5.06897 12.0003 5.06897V3.06897C7.06773 3.06897 3.06897 7.06757 3.06897 12.0001H5.06897Z" fill="black" fill-opacity="0.07"/>
<path fill-rule="evenodd" clip-rule="evenodd" d="M2 11.9999C2 6.47748 6.47733 2 12.0003 2C17.5231 2 22 6.47748 22 11.9999C22 17.5228 17.5231 22 12.0003 22C6.47738 22 2 17.5228 2 11.9999ZM4.06897 12.0001C4.06897 16.3799 7.61996 19.931 12.0003 19.931C16.3804 19.931 19.931 16.3799 19.931 12.0001C19.931 7.61988 16.3804 4.06897 12.0003 4.06897C7.61999 4.06897 4.06897 7.61988 4.06897 12.0001Z" fill="url(#paint4_linear_6:115)"/>
<path d="M12.0002 19C8.13413 19 5 15.8658 5 12.0001C5 8.13406 8.13416 5 12.0002 5C15.8662 5 19 8.13406 19 12.0001C19 15.8658 15.8662 19 12.0002 19Z" stroke="black" stroke-opacity="0.07" stroke-width="2" stroke-linecap="round" stroke-linejoin="round"/>
<path d="M12.0003 19.5C7.858 19.5 4.5 16.1419 4.5 12.0001C4.5 7.85794 7.85803 4.5 12.0003 4.5C16.1423 4.5 19.5 7.8579 19.5 12.0001C19.5 16.1419 16.1423 19.5 12.0003 19.5Z" stroke="black" stroke-opacity="0.15" stroke-linecap="round" stroke-linejoin="round"/>
<path d="M12.0002 19C8.13413 19 5 15.8658 5 12.0001C5 8.13406 8.13416 5 12.0002 5C15.8662 5 19 8.13406 19 12.0001C19 15.8658 15.8662 19 12.0002 19Z" fill="url(#paint5_linear_6:115)"/>
<path opacity="0.7" d="M12.0002 18.5C8.41026 18.5 5.5 15.5896 5.5 12.0001C5.5 8.41021 8.41029 5.5 12.0002 5.5C15.59 5.5 18.5 8.41017 18.5 12.0001C18.5 15.5896 15.59 18.5 12.0002 18.5Z" stroke="url(#paint6_linear_6:115)" stroke-opacity="0.5" stroke-linecap="round" stroke-linejoin="round"/>
<g opacity="0.5">
<path opacity="0.5" d="M12 9.00003C11.4696 9.00003 10.9608 9.21075 10.5858 9.58582C10.2107 9.9609 10 10.4696 10 11C10 11.8287 10.4967 12.536 11.2147 12.8394L10 17H14L12.786 12.8394C13.1471 12.6865 13.455 12.4304 13.671 12.1032C13.887 11.7759 14.0014 11.3921 14 11C14 10.4696 13.7893 9.9609 13.4142 9.58582C13.0391 9.21075 12.5304 9.00003 12 9.00003V9.00003Z" fill="white"/>
</g>
<path d="M12 8C11.4696 8 10.9608 8.21072 10.5858 8.5858C10.2107 8.96087 10 9.46957 10 10C10 10.8287 10.4967 11.536 11.2147 11.8393L10 16H14L12.786 11.8393C13.1471 11.6865 13.455 11.4304 13.671 11.1031C13.887 10.7759 14.0014 10.3921 14 10C14 9.46957 13.7893 8.96087 13.4142 8.5858C13.0392 8.21072 12.5304 8 12 8V8Z" fill="url(#paint7_linear_6:115)"/>
<path d="M12 8.5C11.6022 8.5 11.2206 8.65804 10.9393 8.93934C10.658 9.22064 10.5 9.60218 10.5 10C10.5002 10.3724 10.6388 10.7313 10.889 11.0071C11.1391 11.2829 11.4829 11.4558 11.8535 11.4922L10.666 15.5H13.3281L12.1445 11.4922C12.5155 11.4563 12.8597 11.2836 13.1103 11.0077C13.3609 10.7319 13.4998 10.3727 13.5 10C13.5 9.60218 13.342 9.22064 13.0607 8.93934C12.7794 8.65804 12.3978 8.5 12 8.5Z" stroke="black"/>
</g>
<defs>
<radialGradient id="paint0_radial_6:115" cx="0" cy="0" r="1" gradientUnits="userSpaceOnUse" gradientTransform="translate(12 21.3751) scale(9 2.625)">
<stop/>
<stop offset="1" stop-opacity="0"/>
</radialGradient>
<radialGradient id="paint1_radial_6:115" cx="0" cy="0" r="1" gradientUnits="userSpaceOnUse" gradientTransform="translate(12 22.1252) scale(6 1.87496)">
<stop/>
<stop offset="1" stop-opacity="0"/>
</radialGradient>
<linearGradient id="paint2_linear_6:115" x1="11.6854" y1="1.4521" x2="11.6854" y2="22.6584" gradientUnits="userSpaceOnUse">
<stop stop-color="white"/>
<stop offset="0.507761" stop-color="white" stop-opacity="0.235294"/>
<stop offset="0.834566" stop-color="white" stop-opacity="0.156863"/>
<stop offset="1" stop-color="white" stop-opacity="0.392157"/>
</linearGradient>
<linearGradient id="paint3_linear_6:115" x1="12" y1="35.3465" x2="12" y2="-8.79143" gradientUnits="userSpaceOnUse">
<stop stop-color="#333333"/>
<stop offset="1" stop-color="#1A1A1A"/>
</linearGradient>
<linearGradient id="paint4_linear_6:115" x1="12" y1="0.32677" x2="12" y2="23.7439" gradientUnits="userSpaceOnUse">
<stop stop-color="#4D4D4D"/>
<stop offset="1" stop-color="#333333"/>
</linearGradient>
<linearGradient id="paint5_linear_6:115" x1="12" y1="30.1584" x2="12" y2="-4.17111" gradientUnits="userSpaceOnUse">
<stop stop-color="#ABACAE"/>
<stop offset="1" stop-color="#555761"/>
</linearGradient>
<linearGradient id="paint6_linear_6:115" x1="11.7998" y1="5.2877" x2="11.7998" y2="18.7826" gradientUnits="userSpaceOnUse">
<stop stop-color="white"/>
<stop offset="0.507761" stop-color="white" stop-opacity="0.235294"/>
<stop offset="0.834566" stop-color="white" stop-opacity="0.156863"/>
<stop offset="1" stop-color="white" stop-opacity="0.392157"/>
</linearGradient>
<linearGradient id="paint7_linear_6:115" x1="12" y1="8.24999" x2="12" y2="15.75" gradientUnits="userSpaceOnUse">
<stop stop-color="#2D2D2D"/>
<stop offset="1" stop-color="#3F3F3F"/>
</linearGradient>
<clipPath id="clip0_6:115">
<rect width="24" height="24" fill="white"/>
</clipPath>
</defs>
</svg>
