<?xml version="1.0" encoding="UTF-8" standalone="no"?>
<svg
   width="24"
   height="24"
   viewBox="0 0 24 24"
   fill="none"
   version="1.1"
   id="svg64"
   sodipodi:docname="24.svg"
   inkscape:version="1.1.1 (3bf5ae0d25, 2021-09-20)"
   xmlns:inkscape="http://www.inkscape.org/namespaces/inkscape"
   xmlns:sodipodi="http://sodipodi.sourceforge.net/DTD/sodipodi-0.dtd"
   xmlns="http://www.w3.org/2000/svg"
   xmlns:svg="http://www.w3.org/2000/svg">
  <sodipodi:namedview
     id="namedview66"
     pagecolor="#505050"
     bordercolor="#ffffff"
     borderopacity="1"
     inkscape:pageshadow="0"
     inkscape:pageopacity="0"
     inkscape:pagecheckerboard="1"
     showgrid="false"
     inkscape:zoom="11.313709"
     inkscape:cx="-11.578874"
     inkscape:cy="27.046834"
     inkscape:window-width="1920"
     inkscape:window-height="1019"
     inkscape:window-x="0"
     inkscape:window-y="30"
     inkscape:window-maximized="1"
     inkscape:current-layer="svg64" />
  <path
     d="M19 12H21C22.1046 12 23 12.8954 23 14V17C23 18.1046 22.1046 19 21 19H19V12Z"
     fill="#535353"
     fill-opacity="0.8"
     id="path4" />
  <path
     d="M19 13H21C21.5523 13 22 13.4477 22 14V17C22 17.5523 21.5523 18 21 18H19V13Z"
     fill="url(#paint0_linear_1:32)"
     id="path6" />
  <rect
     x="1.5"
     y="7.5"
     width="17"
     height="14"
     rx="1.5"
     stroke="#535353"
     stroke-opacity="0.8"
     id="rect8" />
  <rect
     x="2"
     y="8"
     width="16"
     height="13"
     rx="1"
     fill="url(#paint1_linear_1:32)"
     id="rect10" />
  <rect
     x="3"
     y="9"
     width="14"
     height="9"
     rx="1"
     fill="url(#paint2_linear_1:32)"
     id="rect12" />
  <rect
     x="3.5"
     y="9.5"
     width="13"
     height="8"
     rx="0.5"
     stroke="url(#paint3_linear_1:32)"
     stroke-opacity="0.9"
     id="rect14" />
  <path
     d="M20 10H21V15.5C21 15.7761 20.7761 16 20.5 16C20.2239 16 20 15.7761 20 15.5V10Z"
     fill="url(#paint4_linear_1:32)"
     id="path16" />
  <circle
     cx="20.5"
     cy="8.5"
     r="3.5"
     fill="#007367"
     fill-opacity="0.8"
     id="circle18" />
  <circle
     cx="20.5"
     cy="8.5"
     r="2.5"
     fill="url(#paint5_radial_1:32)"
     id="circle20" />
  <circle
     cx="3.5"
     cy="19.5"
     r="0.5"
     fill="#424242"
     id="circle22" />
  <path
     d="M6.90385 11.6364H6.15172L5.06721 12.3331V13.0575L6.0878 12.4055H6.11337V16H6.90385V11.6364ZM8.01181 16H11.0033V15.3395H9.10272V15.3097L9.85485 14.5447C10.7029 13.7308 10.9372 13.3345 10.9372 12.8423C10.9372 12.1115 10.3428 11.5767 9.46493 11.5767C8.59988 11.5767 7.98624 12.1136 7.98624 12.9425H8.73837C8.73837 12.4972 9.01962 12.218 9.45428 12.218C9.86976 12.218 10.1787 12.4716 10.1787 12.8828C10.1787 13.2472 9.95712 13.5071 9.52672 13.9439L8.01181 15.429V16ZM13.3044 16.0597C14.2377 16.0597 14.9173 15.5249 14.9152 14.7876C14.9173 14.2422 14.5764 13.8501 13.9649 13.7628V13.7287C14.4379 13.6264 14.7554 13.2749 14.7533 12.7848C14.7554 12.12 14.1887 11.5767 13.3172 11.5767C12.4692 11.5767 11.8129 12.0817 11.7959 12.8125H12.5566C12.5693 12.446 12.9102 12.218 13.3129 12.218C13.7199 12.218 13.9905 12.4652 13.9884 12.8317C13.9905 13.2131 13.6752 13.4666 13.2235 13.4666H12.8378V14.076H13.2235C13.7753 14.076 14.1034 14.353 14.1013 14.7472C14.1034 15.1328 13.7689 15.397 13.3023 15.397C12.8634 15.397 12.5246 15.169 12.5054 14.8132H11.7043C11.7256 15.5504 12.384 16.0597 13.3044 16.0597Z"
     fill="white"
     id="path24" />
  <rect
     x="5"
     y="19"
     width="11"
     height="1"
     fill="#555761"
     id="rect26" />
  <defs
     id="defs62">
    <linearGradient
       id="paint0_linear_1:32"
       x1="20.5"
       y1="13"
       x2="20.5"
       y2="18"
       gradientUnits="userSpaceOnUse">
      <stop
         stop-color="#FAFAFA"
         id="stop28" />
      <stop
         offset="0.3125"
         stop-color="#C5C5C6"
         id="stop30" />
      <stop
         offset="0.703125"
         stop-color="#ABACAE"
         id="stop32" />
      <stop
         offset="1"
         stop-color="#7E8087"
         id="stop34" />
    </linearGradient>
    <linearGradient
       id="paint1_linear_1:32"
       x1="10"
       y1="8"
       x2="10"
       y2="21"
       gradientUnits="userSpaceOnUse">
      <stop
         stop-color="#D4D4D4"
         id="stop37" />
      <stop
         offset="1"
         stop-color="#ABACAE"
         id="stop39" />
    </linearGradient>
    <linearGradient
       id="paint2_linear_1:32"
       x1="10"
       y1="9"
       x2="10"
       y2="18"
       gradientUnits="userSpaceOnUse">
      <stop
         stop-color="#333333"
         id="stop42" />
      <stop
         offset="1"
         stop-color="#1A1A1A"
         id="stop44" />
    </linearGradient>
    <linearGradient
       id="paint3_linear_1:32"
       x1="10"
       y1="9"
       x2="10"
       y2="18"
       gradientUnits="userSpaceOnUse">
      <stop
         stop-opacity="0.9"
         id="stop47" />
      <stop
         offset="1"
         stop-color="#1A1A1A"
         stop-opacity="0.9"
         id="stop49" />
    </linearGradient>
    <linearGradient
       id="paint4_linear_1:32"
       x1="20.5"
       y1="10"
       x2="20.5"
       y2="16"
       gradientUnits="userSpaceOnUse">
      <stop
         stop-color="#7E8087"
         id="stop52" />
      <stop
         offset="1"
         stop-color="#555761"
         id="stop54" />
    </linearGradient>
    <radialGradient
       id="paint5_radial_1:32"
       cx="0"
       cy="0"
       r="1"
       gradientUnits="userSpaceOnUse"
       gradientTransform="translate(20.5 6.86538) rotate(90) scale(3.46154 5.36684)">
      <stop
         stop-color="#43D6B5"
         id="stop57" />
      <stop
         offset="1"
         stop-color="#0E9A83"
         id="stop59" />
    </radialGradient>
  </defs>
</svg>
