<svg width="32" height="32" viewBox="0 0 32 32" fill="none" xmlns="http://www.w3.org/2000/svg">
<path d="M24 16H29C30.1046 16 31 16.8954 31 18V23C31 24.1046 30.1046 25 29 25H24V16Z" fill="#535353" fill-opacity="0.8"/>
<path d="M24 17H29C29.5523 17 30 17.4477 30 18V23C30 23.5523 29.5523 24 29 24H24V17Z" fill="url(#paint0_linear_1_31)"/>
<rect x="1.5" y="9.5" width="22" height="20" rx="1.5" stroke="#535353" stroke-opacity="0.8"/>
<rect x="2" y="10" width="21" height="19" rx="1" fill="url(#paint1_linear_1_31)"/>
<rect x="3" y="12" width="19" height="10" rx="1" fill="url(#paint2_linear_1_31)"/>
<rect x="3.5" y="12.5" width="18" height="9" rx="0.5" stroke="url(#paint3_linear_1_31)" stroke-opacity="0.9"/>
<path d="M25 13H29V19C29 20.1046 28.1046 21 27 21V21C25.8954 21 25 20.1046 25 19V13Z" fill="url(#paint4_linear_1_31)"/>
<circle cx="5" cy="25" r="1" fill="#424242"/>
<path d="M8.3718 14.1818H7.36896L5.92294 15.1108V16.0767L7.28374 15.2074H7.31783V20H8.3718V14.1818ZM9.84908 20H13.8377V19.1193H11.3036V19.0795L12.3065 18.0597C13.4371 16.9744 13.7496 16.446 13.7496 15.7898C13.7496 14.8153 12.957 14.1023 11.7866 14.1023C10.6332 14.1023 9.81499 14.8182 9.81499 15.9233H10.8178C10.8178 15.3295 11.1928 14.9574 11.7724 14.9574C12.3263 14.9574 12.7383 15.2955 12.7383 15.8438C12.7383 16.3295 12.4428 16.6761 11.869 17.2585L9.84908 19.2386V20ZM16.9059 20.0795C18.1502 20.0795 19.0565 19.3665 19.0536 18.3835C19.0565 17.6562 18.6019 17.1335 17.7866 17.017V16.9716C18.4173 16.8352 18.8406 16.3665 18.8377 15.7131C18.8406 14.8267 18.0849 14.1023 16.9229 14.1023C15.7923 14.1023 14.9173 14.7756 14.8945 15.75H15.9087C15.9258 15.2614 16.3803 14.9574 16.9173 14.9574C17.4599 14.9574 17.8207 15.2869 17.8178 15.7756C17.8207 16.2841 17.4002 16.6222 16.7979 16.6222H16.2837V17.4347H16.7979C17.5337 17.4347 17.9712 17.804 17.9684 18.3295C17.9712 18.8438 17.5252 19.196 16.9031 19.196C16.3178 19.196 15.8661 18.892 15.8406 18.4176H14.7724C14.8008 19.4006 15.6786 20.0795 16.9059 20.0795Z" fill="white"/>
<rect x="7" y="25" width="14" height="1" rx="0.5" fill="#555761"/>
<path d="M26 11H28V19C28 19.5523 27.5523 20 27 20V20C26.4477 20 26 19.5523 26 19V11Z" fill="url(#paint5_linear_1_31)"/>
<circle cx="27" cy="10" r="5" fill="#007367" fill-opacity="0.8"/>
<circle cx="27" cy="10" r="4" fill="url(#paint6_radial_1_31)"/>
<defs>
<linearGradient id="paint0_linear_1_31" x1="27" y1="17" x2="27" y2="24" gradientUnits="userSpaceOnUse">
<stop stop-color="#FAFAFA"/>
<stop offset="0.3125" stop-color="#C5C5C6"/>
<stop offset="0.703125" stop-color="#ABACAE"/>
<stop offset="1" stop-color="#7E8087"/>
</linearGradient>
<linearGradient id="paint1_linear_1_31" x1="12.5" y1="10" x2="12.5" y2="29" gradientUnits="userSpaceOnUse">
<stop stop-color="#D4D4D4"/>
<stop offset="1" stop-color="#ABACAE"/>
</linearGradient>
<linearGradient id="paint2_linear_1_31" x1="12.5" y1="12" x2="12.5" y2="22" gradientUnits="userSpaceOnUse">
<stop stop-color="#333333"/>
<stop offset="1" stop-color="#1A1A1A"/>
</linearGradient>
<linearGradient id="paint3_linear_1_31" x1="12.5" y1="12" x2="12.5" y2="22" gradientUnits="userSpaceOnUse">
<stop stop-opacity="0.9"/>
<stop offset="1" stop-color="#1A1A1A" stop-opacity="0.9"/>
</linearGradient>
<linearGradient id="paint4_linear_1_31" x1="27" y1="13" x2="27" y2="21" gradientUnits="userSpaceOnUse">
<stop offset="0.40625" stop-color="#ABACAE"/>
<stop offset="1" stop-color="#7E8087"/>
</linearGradient>
<linearGradient id="paint5_linear_1_31" x1="27" y1="12.2656" x2="27" y2="20" gradientUnits="userSpaceOnUse">
<stop offset="0.348958" stop-color="#D4D4D4"/>
<stop offset="1" stop-color="#ABACAE"/>
</linearGradient>
<radialGradient id="paint6_radial_1_31" cx="0" cy="0" r="1" gradientUnits="userSpaceOnUse" gradientTransform="translate(27 7.38462) rotate(90) scale(5.53846 8.58695)">
<stop stop-color="#43D6B5"/>
<stop offset="1" stop-color="#0E9A83"/>
</radialGradient>
</defs>
</svg>
