<svg width="32" height="32" viewBox="0 0 32 32" fill="none" xmlns="http://www.w3.org/2000/svg">
<g clip-path="url(#clip0_6:69)">
<path opacity="0.2" d="M28 28.5009C28.0003 28.9604 27.6901 29.4155 27.0872 29.8402C26.4843 30.2648 25.6004 30.6506 24.4861 30.9757C23.3718 31.3007 22.0488 31.5585 20.5927 31.7344C19.1367 31.9103 17.5761 32.0008 16 32.0008C14.4239 32.0008 12.8633 31.9103 11.4073 31.7344C9.9512 31.5585 8.62823 31.3007 7.5139 30.9757C6.39956 30.6506 5.5157 30.2648 4.91278 29.8402C4.30986 29.4155 3.9997 28.9604 4 28.5009C3.9997 28.0413 4.30986 27.5862 4.91278 27.1615C5.5157 26.7369 6.39956 26.3511 7.5139 26.026C8.62823 25.701 9.9512 25.4432 11.4073 25.2673C12.8633 25.0914 14.4239 25.0009 16 25.0009C17.5761 25.0009 19.1367 25.0914 20.5927 25.2673C22.0488 25.4432 23.3718 25.701 24.4861 26.026C25.6004 26.3511 26.4843 26.7369 27.0872 27.1615C27.6901 27.5862 28.0003 28.0413 28 28.5009Z" fill="url(#paint0_radial_6:69)"/>
<path opacity="0.4" d="M24 29.5009C24.0003 29.8291 23.7935 30.1542 23.3916 30.4575C22.9897 30.7609 22.4005 31.0365 21.6576 31.2686C20.9147 31.5008 20.0327 31.685 19.0619 31.8106C18.0912 31.9362 17.0507 32.0009 16 32.0009C14.9493 32.0009 13.9088 31.9362 12.9381 31.8106C11.9673 31.685 11.0853 31.5008 10.3424 31.2686C9.59954 31.0365 9.01031 30.7609 8.60839 30.4575C8.20647 30.1542 7.99974 29.8291 8 29.5009C7.99974 29.1726 8.20647 28.8475 8.60839 28.5442C9.01031 28.2408 9.59954 27.9652 10.3424 27.7331C11.0853 27.5009 11.9673 27.3168 12.9381 27.1911C13.9088 27.0655 14.9493 27.0008 16 27.0008C17.0507 27.0008 18.0912 27.0655 19.0619 27.1911C20.0327 27.3168 20.9147 27.5009 21.6576 27.7331C22.4005 27.9652 22.9897 28.2408 23.3916 28.5442C23.7935 28.8475 24.0003 29.1726 24 29.5009Z" fill="url(#paint1_radial_6:69)"/>
<path opacity="0.7" d="M30 15.9995C30 23.7317 23.7315 30 16.0002 30C8.26814 30 2 23.7317 2 15.9995C2 8.26764 8.2681 2 16.0002 2C23.7315 2 30 8.26764 30 15.9995Z" stroke="url(#paint2_linear_6:69)" stroke-linecap="round" stroke-linejoin="round"/>
<path opacity="0.5" d="M1.5 16C1.5 7.99966 7.99966 1.5 16 1.5C24.0003 1.5 30.5 7.99966 30.5 16C30.5 24.0003 24.0003 30.5 16 30.5C7.99966 30.5 1.5 24.0003 1.5 16Z" stroke="#555761" stroke-linecap="round" stroke-linejoin="round"/>
<path d="M16.0004 27.5C9.64893 27.5 4.5 22.3509 4.5 16.0001C4.5 9.64881 9.64898 4.5 16.0004 4.5C22.3516 4.5 27.5 9.64881 27.5 16.0001C27.5 22.3509 22.3516 27.5 16.0004 27.5Z" fill="url(#paint3_linear_6:69)"/>
<path fill-rule="evenodd" clip-rule="evenodd" d="M2 15.9998C2 8.26848 8.26826 2 16.0005 2C23.7324 2 30 8.26848 30 15.9998C30 23.7319 23.7324 30 16.0005 30C8.26833 30 2 23.7319 2 15.9998ZM4.89655 16.0001C4.89655 22.1319 9.86792 27.1035 16.0004 27.1035C22.1326 27.1035 27.1034 22.1319 27.1034 16.0001C27.1034 9.86782 22.1326 4.89655 16.0004 4.89655C9.86798 4.89655 4.89655 9.86782 4.89655 16.0001Z" fill="black" fill-opacity="0.15"/>
<path d="M16.0005 1C7.716 1 1 7.71617 1 15.9998H3C3 8.82078 8.82053 3 16.0005 3V1ZM31 15.9998C31 7.71625 24.2847 1 16.0005 1V3C23.18 3 29 8.82071 29 15.9998H31ZM16.0005 31C24.2847 31 31 24.2841 31 15.9998H29C29 23.1796 23.18 29 16.0005 29V31ZM1 15.9998C1 24.2842 7.71607 31 16.0005 31V29C8.82059 29 3 23.1796 3 15.9998H1ZM16.0004 26.1035C10.4202 26.1035 5.89655 21.5796 5.89655 16.0001H3.89655C3.89655 22.6842 9.31566 28.1035 16.0004 28.1035V26.1035ZM26.1034 16.0001C26.1034 21.5797 21.5802 26.1035 16.0004 26.1035V28.1035C22.6849 28.1035 28.1034 22.6841 28.1034 16.0001H26.1034ZM16.0004 5.89655C21.5802 5.89655 26.1034 10.4201 26.1034 16.0001H28.1034C28.1034 9.31559 22.6849 3.89655 16.0004 3.89655V5.89655ZM5.89655 16.0001C5.89655 10.4201 10.4202 5.89655 16.0004 5.89655V3.89655C9.31572 3.89655 3.89655 9.31551 3.89655 16.0001H5.89655Z" fill="black" fill-opacity="0.07"/>
<path fill-rule="evenodd" clip-rule="evenodd" d="M2 15.9998C2 8.26848 8.26826 2 16.0005 2C23.7324 2 30 8.26848 30 15.9998C30 23.7319 23.7324 30 16.0005 30C8.26833 30 2 23.7319 2 15.9998ZM4.89655 16.0001C4.89655 22.1319 9.86793 27.1035 16.0004 27.1035C22.1326 27.1035 27.1034 22.1319 27.1034 16.0001C27.1034 9.86782 22.1326 4.89655 16.0004 4.89655C9.86798 4.89655 4.89655 9.86782 4.89655 16.0001Z" fill="url(#paint4_linear_6:69)"/>
<path d="M16.1253 25.75C10.8094 25.75 6.5 21.4404 6.5 16.1251C6.5 10.8093 10.8095 6.5 16.1253 6.5C21.441 6.5 25.75 10.8093 25.75 16.1251C25.75 21.4404 21.441 25.75 16.1253 25.75Z" stroke="black" stroke-opacity="0.07" stroke-width="2" stroke-linecap="round" stroke-linejoin="round"/>
<path d="M16.0004 25.5C10.7535 25.5 6.5 21.2464 6.5 16.0001C6.5 10.7534 10.7535 6.5 16.0004 6.5C21.247 6.5 25.5 10.7533 25.5 16.0001C25.5 21.2464 21.247 25.5 16.0004 25.5Z" stroke="black" stroke-opacity="0.15" stroke-linecap="round" stroke-linejoin="round"/>
<path d="M16.0004 26C10.4773 26 6 21.5225 6 16.0001C6 10.4772 10.4774 6 16.0004 6C21.5231 6 26 10.4772 26 16.0001C26 21.5225 21.5231 26 16.0004 26Z" fill="url(#paint5_linear_6:69)"/>
<path opacity="0.7" d="M16.0004 25.5C10.7535 25.5 6.5 21.2464 6.5 16.0001C6.5 10.7534 10.7535 6.5 16.0004 6.5C21.247 6.5 25.5 10.7533 25.5 16.0001C25.5 21.2464 21.247 25.5 16.0004 25.5Z" stroke="url(#paint6_linear_6:69)" stroke-opacity="0.5" stroke-linecap="round" stroke-linejoin="round"/>
<g opacity="0.5">
<path opacity="0.5" d="M15.75 12C15.0207 12 14.3212 12.2897 13.8054 12.8055C13.2897 13.3212 13 14.0207 13 14.75C13 15.8894 13.6829 16.862 14.6702 17.2791L13 23H18.5L16.8308 17.2791C17.3273 17.069 17.7506 16.7168 18.0476 16.2668C18.3446 15.8169 18.502 15.2891 18.5 14.75C18.5 14.0207 18.2103 13.3212 17.6946 12.8055C17.1788 12.2897 16.4793 12 15.75 12V12Z" fill="white"/>
</g>
<path d="M15.75 11C15.0207 11 14.3212 11.2897 13.8054 11.8055C13.2897 12.3212 13 13.0207 13 13.75C13 14.8894 13.6829 15.862 14.6702 16.2791L13 22H18.5L16.8308 16.2791C17.3273 16.069 17.7506 15.7168 18.0476 15.2668C18.3446 14.8169 18.502 14.2891 18.5 13.75C18.5 13.0207 18.2103 12.3212 17.6946 11.8055C17.1788 11.2897 16.4793 11 15.75 11V11Z" fill="url(#paint7_linear_6:69)"/>
<path d="M15.75 11.5C15.1533 11.5 14.581 11.7371 14.159 12.159C13.7371 12.581 13.5 13.1533 13.5 13.75C13.5003 14.2716 13.6818 14.777 14.0135 15.1795C14.3452 15.5821 14.8064 15.857 15.3184 15.957L13.6777 21.5H17.8379L16.1836 15.9551C16.6948 15.8547 17.1554 15.58 17.4867 15.1778C17.8179 14.7757 17.9994 14.271 18 13.75C18 13.1533 17.7629 12.581 17.341 12.159C16.919 11.7371 16.3467 11.5 15.75 11.5Z" stroke="black"/>
</g>
<defs>
<radialGradient id="paint0_radial_6:69" cx="0" cy="0" r="1" gradientUnits="userSpaceOnUse" gradientTransform="translate(16 28.5001) scale(12 3.5)">
<stop/>
<stop offset="1" stop-opacity="0"/>
</radialGradient>
<radialGradient id="paint1_radial_6:69" cx="0" cy="0" r="1" gradientUnits="userSpaceOnUse" gradientTransform="translate(16 29.5003) scale(8 2.49995)">
<stop/>
<stop offset="1" stop-opacity="0"/>
</radialGradient>
<linearGradient id="paint2_linear_6:69" x1="15.5853" y1="2.09594" x2="15.5853" y2="30.0497" gradientUnits="userSpaceOnUse">
<stop stop-color="white"/>
<stop offset="0.507761" stop-color="white" stop-opacity="0.235294"/>
<stop offset="0.834566" stop-color="white" stop-opacity="0.156863"/>
<stop offset="1" stop-color="white" stop-opacity="0.392157"/>
</linearGradient>
<linearGradient id="paint3_linear_6:69" x1="16" y1="45.8316" x2="16" y2="-10.5668" gradientUnits="userSpaceOnUse">
<stop stop-color="#333333"/>
<stop offset="1" stop-color="#1A1A1A"/>
</linearGradient>
<linearGradient id="paint4_linear_6:69" x1="16" y1="-0.342522" x2="16" y2="32.4415" gradientUnits="userSpaceOnUse">
<stop stop-color="#4D4D4D"/>
<stop offset="1" stop-color="#333333"/>
</linearGradient>
<linearGradient id="paint5_linear_6:69" x1="16" y1="41.9405" x2="16" y2="-7.10159" gradientUnits="userSpaceOnUse">
<stop stop-color="#ABACAE"/>
<stop offset="1" stop-color="#555761"/>
</linearGradient>
<linearGradient id="paint6_linear_6:69" x1="15.714" y1="6.411" x2="15.714" y2="25.6895" gradientUnits="userSpaceOnUse">
<stop stop-color="white"/>
<stop offset="0.507761" stop-color="white" stop-opacity="0.235294"/>
<stop offset="0.834566" stop-color="white" stop-opacity="0.156863"/>
<stop offset="1" stop-color="white" stop-opacity="0.392157"/>
</linearGradient>
<linearGradient id="paint7_linear_6:69" x1="15.75" y1="11.3437" x2="15.75" y2="21.6562" gradientUnits="userSpaceOnUse">
<stop stop-color="#2D2D2D"/>
<stop offset="1" stop-color="#3F3F3F"/>
</linearGradient>
<clipPath id="clip0_6:69">
<rect width="32" height="32" fill="white"/>
</clipPath>
</defs>
</svg>
