<svg width="32" height="32" viewBox="0 0 32 32" fill="none" xmlns="http://www.w3.org/2000/svg">
<path d="M25 16H29C30.1046 16 31 16.8954 31 18V23C31 24.1046 30.1046 25 29 25H25V16Z" fill="#535353" fill-opacity="0.8"/>
<path d="M25 17H29C29.5523 17 30 17.4477 30 18V23C30 23.5523 29.5523 24 29 24H25V17Z" fill="url(#paint0_linear_1:31)"/>
<rect x="2.5" y="10.5" width="22" height="19" rx="1.5" stroke="#535353" stroke-opacity="0.8"/>
<rect x="3" y="11" width="21" height="18" rx="1" fill="url(#paint1_linear_1:31)"/>
<rect x="4.02704" y="13" width="18.973" height="12" rx="1" fill="url(#paint2_linear_1:31)"/>
<rect x="4.52704" y="13.5" width="17.973" height="11" rx="0.5" stroke="url(#paint3_linear_1:31)" stroke-opacity="0.9"/>
<path d="M26 13H29V19.5C29 20.3284 28.3284 21 27.5 21C26.6716 21 26 20.3284 26 19.5V13Z" fill="url(#paint4_linear_1:31)"/>
<circle cx="27.5" cy="11.5" r="4.5" fill="#007367" fill-opacity="0.8"/>
<circle cx="27.5" cy="11.5" r="3.5" fill="url(#paint5_radial_1:31)"/>
<circle cx="6" cy="27" r="1" fill="#424242"/>
<path d="M8.03842 16.2727H7.22361L6.04872 17.0275V17.8123L7.15436 17.106H7.18206V21H8.03842V16.2727ZM9.2387 21H12.4795V20.2844H10.4205V20.2521L11.2353 19.4235C12.154 18.5417 12.4079 18.1124 12.4079 17.5792C12.4079 16.7875 11.7639 16.2081 10.8129 16.2081C9.87578 16.2081 9.211 16.7898 9.211 17.6877H10.0258C10.0258 17.2053 10.3305 16.9029 10.8014 16.9029C11.2515 16.9029 11.5862 17.1776 11.5862 17.623C11.5862 18.0178 11.3461 18.2994 10.8799 18.7725L9.2387 20.3814V21ZM14.9724 21.0646C15.9834 21.0646 16.7197 20.4853 16.7174 19.6866C16.7197 19.0957 16.3504 18.671 15.6879 18.5763V18.5394C16.2004 18.4286 16.5443 18.0478 16.542 17.5169C16.5443 16.7967 15.9303 16.2081 14.9862 16.2081C14.0675 16.2081 13.3566 16.7551 13.3381 17.5469H14.1622C14.176 17.1499 14.5453 16.9029 14.9816 16.9029C15.4225 16.9029 15.7156 17.1706 15.7133 17.5676C15.7156 17.9808 15.374 18.2555 14.8847 18.2555H14.4669V18.9157H14.8847C15.4825 18.9157 15.838 19.2157 15.8356 19.6428C15.838 20.0605 15.4756 20.3468 14.9701 20.3468C14.4946 20.3468 14.1276 20.0998 14.1068 19.7143H13.2389C13.262 20.513 13.9752 21.0646 14.9724 21.0646ZM19.1509 16.2081C18.126 16.2012 17.4451 16.9052 17.4451 17.8285C17.4474 18.7195 18.0821 19.3635 18.9108 19.3635C19.4209 19.3635 19.8641 19.1165 20.0926 18.7102H20.1249C20.1226 19.7212 19.7556 20.3237 19.1024 20.3237C18.6938 20.3237 18.4191 20.0882 18.3337 19.712H17.4912C17.5882 20.4945 18.2068 21.0646 19.1024 21.0646C20.2357 21.0646 20.9582 20.1183 20.9559 18.4909C20.9536 16.769 20.058 16.2127 19.1509 16.2081ZM19.1532 16.9006C19.6587 16.9006 20.0303 17.3207 20.0303 17.8031C20.0326 18.2924 19.6425 18.7125 19.1439 18.7125C18.6407 18.7125 18.2783 18.3155 18.276 17.81C18.276 17.3022 18.6523 16.9006 19.1532 16.9006Z" fill="white"/>
<rect x="8" y="26" width="14" height="1" fill="#555761"/>
<rect x="8" y="27" width="14" height="1" fill="#D4D4D4"/>
<defs>
<linearGradient id="paint0_linear_1:31" x1="27.5" y1="17" x2="27.5" y2="24" gradientUnits="userSpaceOnUse">
<stop stop-color="#FAFAFA"/>
<stop offset="0.3125" stop-color="#C5C5C6"/>
<stop offset="0.703125" stop-color="#ABACAE"/>
<stop offset="1" stop-color="#7E8087"/>
</linearGradient>
<linearGradient id="paint1_linear_1:31" x1="13.5" y1="11" x2="13.5" y2="29" gradientUnits="userSpaceOnUse">
<stop stop-color="#D4D4D4"/>
<stop offset="1" stop-color="#ABACAE"/>
</linearGradient>
<linearGradient id="paint2_linear_1:31" x1="13.5135" y1="13" x2="13.5135" y2="25" gradientUnits="userSpaceOnUse">
<stop stop-color="#333333"/>
<stop offset="1" stop-color="#1A1A1A"/>
</linearGradient>
<linearGradient id="paint3_linear_1:31" x1="13.5135" y1="13" x2="13.5135" y2="25" gradientUnits="userSpaceOnUse">
<stop stop-opacity="0.9"/>
<stop offset="1" stop-color="#1A1A1A" stop-opacity="0.9"/>
</linearGradient>
<linearGradient id="paint4_linear_1:31" x1="27.5" y1="13" x2="27.5" y2="21" gradientUnits="userSpaceOnUse">
<stop offset="0.40625" stop-color="#ABACAE"/>
<stop offset="1" stop-color="#7E8087"/>
</linearGradient>
<radialGradient id="paint5_radial_1:31" cx="0" cy="0" r="1" gradientUnits="userSpaceOnUse" gradientTransform="translate(27.5 9.21154) rotate(90) scale(4.84615 7.51358)">
<stop stop-color="#43D6B5"/>
<stop offset="1" stop-color="#0E9A83"/>
</radialGradient>
</defs>
</svg>
