<svg width="48" height="48" viewBox="0 0 48 48" fill="none" xmlns="http://www.w3.org/2000/svg">
<ellipse cx="19" cy="45" rx="17" ry="1" fill="url(#paint0_radial_1_30)" fill-opacity="0.18"/>
<ellipse cx="35" cy="40.5" rx="10" ry="2.5" fill="url(#paint1_radial_1_30)" fill-opacity="0.14"/>
<path d="M37 24H45C46.1046 24 47 24.8954 47 26V35C47 36.1046 46.1046 37 45 37H37V24Z" fill="#535353" fill-opacity="0.8"/>
<path d="M37.5 25.5H45C45.2761 25.5 45.5 25.7239 45.5 26V35C45.5 35.2761 45.2761 35.5 45 35.5H37.5V25.5Z" fill="url(#paint2_linear_1_30)" stroke="url(#paint3_linear_1_30)"/>
<rect x="1.5" y="12.5" width="35" height="32" rx="2.5" stroke="#535353" stroke-opacity="0.8"/>
<rect x="2.5" y="13.5" width="33" height="30" rx="1.5" fill="url(#paint4_linear_1_30)" stroke="url(#paint5_linear_1_30)"/>
<rect x="4" y="16" width="30" height="17" rx="2" fill="url(#paint6_linear_1_30)"/>
<rect x="4.5" y="16.5" width="29" height="16" rx="1.5" stroke="url(#paint7_linear_1_30)" stroke-opacity="0.9"/>
<path d="M3.99998 18V31C3.99998 32.1046 4.89541 33 5.99998 33H10.6666L27.3333 16H5.99998C4.89541 16 3.99998 16.8954 3.99998 18Z" fill="white" fill-opacity="0.1"/>
<path d="M39 19H44V27.5C44 28.8807 42.8807 30 41.5 30V30C40.1193 30 39 28.8807 39 27.5V19Z" fill="#555761" fill-opacity="0.8"/>
<path d="M40 19H43V27.5C43 28.3284 42.3284 29 41.5 29V29C40.6716 29 40 28.3284 40 27.5V19Z" fill="url(#paint8_radial_1_30)"/>
<path d="M41 19H42V27.5C42 27.7761 41.7761 28 41.5 28V28C41.2239 28 41 27.7761 41 27.5V19Z" fill="url(#paint9_linear_1_30)"/>
<circle cx="41.5" cy="14.5" r="6.5" fill="#007367" fill-opacity="0.8"/>
<circle cx="41.5" cy="14.5" r="5" fill="url(#paint10_radial_1_30)" stroke="url(#paint11_radial_1_30)"/>
<circle cx="7" cy="38" r="2" fill="#424242"/>
<path d="M8 38C8 38.5523 7.55228 39 7 39C6.44772 39 6 38.5523 6 38C6 37.4477 6.44772 37 7 37C7.55228 37 8 37.4477 8 38Z" fill="#555761"/>
<path d="M10.5976 21.7273H9.34402L7.53649 22.8885V24.0959L9.23748 23.0092H9.2801V29H10.5976V21.7273ZM12.4442 29H17.43V27.8991H14.2623V27.8494L15.5159 26.5746C16.9292 25.218 17.3199 24.5575 17.3199 23.7372C17.3199 22.5192 16.3291 21.6278 14.866 21.6278C13.4243 21.6278 12.4015 22.5227 12.4015 23.9041H13.6551C13.6551 23.1619 14.1238 22.6967 14.8483 22.6967C15.5407 22.6967 16.0557 23.1193 16.0557 23.8047C16.0557 24.4119 15.6863 24.8452 14.969 25.5732L12.4442 28.0483V29ZM21.2652 29.0994C22.8206 29.0994 23.9534 28.2081 23.9498 26.9794C23.9534 26.0703 23.3852 25.4169 22.366 25.2713V25.2145C23.1544 25.044 23.6835 24.4581 23.68 23.6413C23.6835 22.5334 22.7389 21.6278 21.2865 21.6278C19.8731 21.6278 18.7794 22.4695 18.751 23.6875H20.0187C20.04 23.0767 20.6082 22.6967 21.2794 22.6967C21.9577 22.6967 22.4086 23.1087 22.4051 23.7195C22.4086 24.3551 21.8831 24.7777 21.1302 24.7777H20.4875V25.7933H21.1302C22.05 25.7933 22.5969 26.255 22.5933 26.9119C22.5969 27.5547 22.0393 27.995 21.2616 27.995C20.5301 27.995 19.9655 27.6151 19.9335 27.022H18.5983C18.6338 28.2507 19.7311 29.0994 21.2652 29.0994ZM27.6936 21.6278C26.1169 21.6172 25.0693 22.7003 25.0693 24.1207C25.0729 25.4915 26.0494 26.4822 27.3243 26.4822C28.1091 26.4822 28.7909 26.1023 29.1425 25.4773H29.1922C29.1887 27.0327 28.624 27.9595 27.6191 27.9595C26.9905 27.9595 26.5679 27.5973 26.4365 27.0185H25.1404C25.2895 28.2223 26.2412 29.0994 27.6191 29.0994C29.3627 29.0994 30.4742 27.6435 30.4706 25.1399C30.4671 22.4908 29.0892 21.6349 27.6936 21.6278ZM27.6972 22.6932C28.4749 22.6932 29.0466 23.3395 29.0466 24.0817C29.0502 24.8345 28.45 25.4808 27.683 25.4808C26.9088 25.4808 26.3513 24.87 26.3477 24.0923C26.3477 23.3111 26.9266 22.6932 27.6972 22.6932Z" fill="#565656"/>
<path d="M10.5976 20.7273H9.34402L7.53649 21.8885V23.0959L9.23748 22.0092H9.2801V28H10.5976V20.7273ZM12.4442 28H17.43V26.8991H14.2623V26.8494L15.5159 25.5746C16.9292 24.218 17.3199 23.5575 17.3199 22.7372C17.3199 21.5192 16.3291 20.6278 14.866 20.6278C13.4243 20.6278 12.4015 21.5227 12.4015 22.9041H13.6551C13.6551 22.1619 14.1238 21.6967 14.8483 21.6967C15.5407 21.6967 16.0557 22.1193 16.0557 22.8047C16.0557 23.4119 15.6863 23.8452 14.969 24.5732L12.4442 27.0483V28ZM21.2652 28.0994C22.8206 28.0994 23.9534 27.2081 23.9498 25.9794C23.9534 25.0703 23.3852 24.4169 22.366 24.2713V24.2145C23.1544 24.044 23.6835 23.4581 23.68 22.6413C23.6835 21.5334 22.7389 20.6278 21.2865 20.6278C19.8731 20.6278 18.7794 21.4695 18.751 22.6875H20.0187C20.04 22.0767 20.6082 21.6967 21.2794 21.6967C21.9577 21.6967 22.4086 22.1087 22.4051 22.7195C22.4086 23.3551 21.8831 23.7777 21.1302 23.7777H20.4875V24.7933H21.1302C22.05 24.7933 22.5969 25.255 22.5933 25.9119C22.5969 26.5547 22.0393 26.995 21.2616 26.995C20.5301 26.995 19.9655 26.6151 19.9335 26.022H18.5983C18.6338 27.2507 19.7311 28.0994 21.2652 28.0994ZM27.6936 20.6278C26.1169 20.6172 25.0693 21.7003 25.0693 23.1207C25.0729 24.4915 26.0494 25.4822 27.3243 25.4822C28.1091 25.4822 28.7909 25.1023 29.1425 24.4773H29.1922C29.1887 26.0327 28.624 26.9595 27.6191 26.9595C26.9905 26.9595 26.5679 26.5973 26.4365 26.0185H25.1404C25.2895 27.2223 26.2412 28.0994 27.6191 28.0994C29.3627 28.0994 30.4742 26.6435 30.4706 24.1399C30.4671 21.4908 29.0892 20.6349 27.6936 20.6278ZM27.6972 21.6932C28.4749 21.6932 29.0466 22.3395 29.0466 23.0817C29.0502 23.8345 28.45 24.4808 27.683 24.4808C26.9088 24.4808 26.3513 23.87 26.3477 23.0923C26.3477 22.3111 26.9266 21.6932 27.6972 21.6932Z" fill="white"/>
<path d="M11 39H32V39C32 39.5523 31.5523 40 31 40H12C11.4477 40 11 39.5523 11 39V39Z" fill="#D4D4D4"/>
<path d="M11 39C11 38.4477 11.4477 38 12 38H31C31.5523 38 32 38.4477 32 39V39H11V39Z" fill="#555761"/>
<defs>
<radialGradient id="paint0_radial_1_30" cx="0" cy="0" r="1" gradientUnits="userSpaceOnUse" gradientTransform="translate(19 45) rotate(90) scale(1 17)">
<stop/>
<stop offset="1" stop-opacity="0"/>
</radialGradient>
<radialGradient id="paint1_radial_1_30" cx="0" cy="0" r="1" gradientUnits="userSpaceOnUse" gradientTransform="translate(35 40.5) rotate(90) scale(2.5 10)">
<stop/>
<stop offset="1" stop-opacity="0"/>
</radialGradient>
<linearGradient id="paint2_linear_1_30" x1="41.5" y1="25" x2="41.5" y2="36" gradientUnits="userSpaceOnUse">
<stop stop-color="#FAFAFA"/>
<stop offset="0.3125" stop-color="#C5C5C6"/>
<stop offset="0.703125" stop-color="#ABACAE"/>
<stop offset="1" stop-color="#7E8087"/>
</linearGradient>
<linearGradient id="paint3_linear_1_30" x1="41.5" y1="25" x2="41.5" y2="36" gradientUnits="userSpaceOnUse">
<stop stop-color="#FAFAFA"/>
<stop offset="0.1875" stop-color="#D4D4D4"/>
<stop offset="0.614583" stop-color="#ABACAE"/>
<stop offset="0.9375" stop-color="#7E8087"/>
</linearGradient>
<linearGradient id="paint4_linear_1_30" x1="19" y1="13" x2="19" y2="44" gradientUnits="userSpaceOnUse">
<stop stop-color="#D4D4D4"/>
<stop offset="1" stop-color="#ABACAE"/>
</linearGradient>
<linearGradient id="paint5_linear_1_30" x1="19" y1="13" x2="19" y2="44" gradientUnits="userSpaceOnUse">
<stop stop-color="#FAFAFA"/>
<stop offset="0.156065" stop-color="#D3D3D3"/>
<stop offset="0.794257" stop-color="#ACADAF"/>
<stop offset="1" stop-color="#7E8087"/>
</linearGradient>
<linearGradient id="paint6_linear_1_30" x1="19" y1="16" x2="19" y2="33" gradientUnits="userSpaceOnUse">
<stop stop-color="#333333"/>
<stop offset="1" stop-color="#1A1A1A"/>
</linearGradient>
<linearGradient id="paint7_linear_1_30" x1="19" y1="16" x2="19" y2="33" gradientUnits="userSpaceOnUse">
<stop stop-opacity="0.9"/>
<stop offset="1" stop-color="#1A1A1A" stop-opacity="0.9"/>
</linearGradient>
<radialGradient id="paint8_radial_1_30" cx="0" cy="0" r="1" gradientUnits="userSpaceOnUse" gradientTransform="translate(41.5 29) rotate(-90) scale(5.3125 15.692)">
<stop offset="0.223958" stop-color="#95979B"/>
<stop offset="1" stop-color="#D4D4D4"/>
</radialGradient>
<linearGradient id="paint9_linear_1_30" x1="41.5" y1="20.2656" x2="41.5" y2="28" gradientUnits="userSpaceOnUse">
<stop offset="0.348958" stop-color="#D4D4D4"/>
<stop offset="1" stop-color="#ABACAE"/>
</linearGradient>
<radialGradient id="paint10_radial_1_30" cx="0" cy="0" r="1" gradientUnits="userSpaceOnUse" gradientTransform="translate(41.5 10.9038) rotate(90) scale(7.61538 11.8071)">
<stop stop-color="#43D6B5"/>
<stop offset="1" stop-color="#0E9A83"/>
</radialGradient>
<radialGradient id="paint11_radial_1_30" cx="0" cy="0" r="1" gradientUnits="userSpaceOnUse" gradientTransform="translate(41.5 11.1154) rotate(90) scale(8.88462)">
<stop stop-color="#89FFDD"/>
<stop offset="0.354167" stop-color="#43D6B5"/>
<stop offset="1" stop-color="#0E9A83"/>
</radialGradient>
</defs>
</svg>
