<svg width="48" height="48" viewBox="0 0 48 48" fill="none" xmlns="http://www.w3.org/2000/svg">
<g clip-path="url(#clip0_6:20)">
<path opacity="0.2" d="M42 42.7513C42.0004 43.4407 41.5352 44.1233 40.6308 44.7603C39.7264 45.3972 38.4006 45.976 36.7291 46.4635C35.0576 46.951 33.0732 47.3377 30.8891 47.6016C28.705 47.8654 26.3641 48.0012 24 48.0012C21.6359 48.0012 19.295 47.8654 17.1109 47.6016C14.9268 47.3377 12.9423 46.951 11.2708 46.4635C9.59935 45.976 8.27355 45.3972 7.36917 44.7603C6.46479 44.1233 5.99954 43.4407 6 42.7513C5.99954 42.0619 6.46479 41.3792 7.36917 40.7423C8.27355 40.1053 9.59935 39.5266 11.2708 39.0391C12.9423 38.5515 14.9268 38.1648 17.1109 37.901C19.295 37.6371 21.6359 37.5013 24 37.5013C26.3641 37.5013 28.705 37.6371 30.8891 37.901C33.0732 38.1648 35.0576 38.5515 36.7291 39.0391C38.4006 39.5266 39.7264 40.1053 40.6308 40.7423C41.5352 41.3792 42.0004 42.0619 42 42.7513Z" fill="url(#paint0_radial_6:20)"/>
<path opacity="0.4" d="M36 44.2513C36.0004 44.7437 35.6903 45.2313 35.0874 45.6863C34.4845 46.1413 33.6007 46.5547 32.4863 46.9029C31.372 47.2512 30.049 47.5274 28.5929 47.7159C27.1368 47.9044 25.5761 48.0014 24 48.0014C22.4239 48.0014 20.8632 47.9044 19.4071 47.7159C17.951 47.5274 16.628 47.2512 15.5137 46.9029C14.3993 46.5547 13.5155 46.1413 12.9126 45.6863C12.3097 45.2313 11.9996 44.7437 12 44.2513C11.9996 43.7588 12.3097 43.2712 12.9126 42.8162C13.5155 42.3613 14.3993 41.9479 15.5137 41.5996C16.628 41.2514 17.951 40.9751 19.4071 40.7867C20.8632 40.5982 22.4239 40.5012 24 40.5012C25.5761 40.5012 27.1368 40.5982 28.5929 40.7867C30.049 40.9751 31.372 41.2514 32.4863 41.5996C33.6007 41.9479 34.4845 42.3613 35.0874 42.8162C35.6903 43.2712 36.0004 43.7588 36 44.2513Z" fill="url(#paint1_radial_6:20)"/>
<path opacity="0.7" d="M45.25 23.9992C45.25 35.7357 35.7353 45.25 24.0003 45.25C12.2641 45.25 2.75 35.7356 2.75 23.9992C2.75 12.2634 12.2641 2.75 24.0003 2.75C35.7354 2.75 45.25 12.2634 45.25 23.9992Z" stroke="url(#paint2_linear_6:20)" stroke-linecap="round" stroke-linejoin="round"/>
<path opacity="0.5" d="M2.5 24C2.5 12.1373 12.1373 2.5 24 2.5C35.8627 2.5 45.5 12.1373 45.5 24C45.5 35.8627 35.8627 45.5 24 45.5C12.1373 45.5 2.5 35.8627 2.5 24Z" stroke="#555761" stroke-linecap="round" stroke-linejoin="round"/>
<path d="M24.0006 41.25C14.4734 41.25 6.75 33.5263 6.75 24.0002C6.75 14.4732 14.4735 6.75 24.0006 6.75C33.5274 6.75 41.25 14.4732 41.25 24.0002C41.25 33.5263 33.5274 41.25 24.0006 41.25Z" fill="url(#paint3_linear_6:20)"/>
<path fill-rule="evenodd" clip-rule="evenodd" d="M3 23.9997C3 12.4027 12.4024 3 24.0007 3C35.5986 3 45 12.4027 45 23.9997C45 35.5978 35.5986 45 24.0007 45C12.4025 45 3 35.5978 3 23.9997ZM7.34483 24.0002C7.34483 33.1979 14.8019 40.6552 24.0006 40.6552C33.1989 40.6552 40.6552 33.1979 40.6552 24.0002C40.6552 14.8017 33.1989 7.34483 24.0006 7.34483C14.802 7.34483 7.34483 14.8017 7.34483 24.0002Z" fill="black" fill-opacity="0.15"/>
<path d="M24.0007 2C11.8501 2 2 11.8504 2 23.9997H4C4 12.955 12.9547 4 24.0007 4V2ZM46 23.9997C46 11.8505 36.1509 2 24.0007 2V4C35.0462 4 44 12.9549 44 23.9997H46ZM24.0007 46C36.1509 46 46 36.1501 46 23.9997H44C44 35.0456 35.0462 44 24.0007 44V46ZM2 23.9997C2 36.1501 11.8502 46 24.0007 46V44C12.9548 44 4 35.0455 4 23.9997H2ZM24.0006 39.6552C15.3542 39.6552 8.34483 32.6456 8.34483 24.0002H6.34483C6.34483 33.7502 14.2496 41.6552 24.0006 41.6552V39.6552ZM39.6552 24.0002C39.6552 32.6456 32.6465 39.6552 24.0006 39.6552V41.6552C33.7512 41.6552 41.6552 33.7501 41.6552 24.0002H39.6552ZM24.0006 8.34483C32.6465 8.34483 39.6552 15.354 39.6552 24.0002H41.6552C41.6552 14.2495 33.7512 6.34483 24.0006 6.34483V8.34483ZM8.34483 24.0002C8.34483 15.354 15.3542 8.34483 24.0006 8.34483V6.34483C14.2497 6.34483 6.34483 14.2494 6.34483 24.0002H8.34483Z" fill="black" fill-opacity="0.07"/>
<path fill-rule="evenodd" clip-rule="evenodd" d="M3 23.9997C3 12.4027 12.4024 3 24.0007 3C35.5986 3 45 12.4027 45 23.9997C45 35.5978 35.5986 45 24.0007 45C12.4025 45 3 35.5978 3 23.9997ZM7.34482 24.0002C7.34482 33.1978 14.8019 40.6552 24.0006 40.6552C33.1989 40.6552 40.6552 33.1978 40.6552 24.0002C40.6552 14.8017 33.1989 7.34482 24.0006 7.34482C14.802 7.34482 7.34482 14.8017 7.34482 24.0002Z" fill="url(#paint4_linear_6:20)"/>
<path d="M24.188 38.625C16.2141 38.625 9.75 32.1606 9.75 24.1877C9.75 16.214 16.2142 9.75 24.188 9.75C32.1615 9.75 38.625 16.214 38.625 24.1877C38.625 32.1606 32.1615 38.625 24.188 38.625Z" stroke="black" stroke-opacity="0.07" stroke-width="2" stroke-linecap="round" stroke-linejoin="round"/>
<path d="M24.188 38.125C16.4903 38.125 10.25 31.8845 10.25 24.1877C10.25 16.4902 16.4903 10.25 24.188 10.25C31.8853 10.25 38.125 16.4901 38.125 24.1877C38.125 31.8845 31.8853 38.125 24.188 38.125Z" stroke="black" stroke-opacity="0.15" stroke-linecap="round" stroke-linejoin="round"/>
<path d="M24.188 38.25C16.2141 38.25 9.75 31.7856 9.75 23.8127C9.75 15.839 16.2142 9.375 24.188 9.375C32.1615 9.375 38.625 15.839 38.625 23.8127C38.625 31.7856 32.1615 38.25 24.188 38.25Z" fill="url(#paint5_linear_6:20)"/>
<path opacity="0.7" d="M24.188 37.75C16.4903 37.75 10.25 31.5095 10.25 23.8127C10.25 16.1152 16.4903 9.875 24.188 9.875C31.8853 9.875 38.125 16.1151 38.125 23.8127C38.125 31.5095 31.8853 37.75 24.188 37.75Z" stroke="url(#paint6_linear_6:20)" stroke-opacity="0.5" stroke-linecap="round" stroke-linejoin="round"/>
<g opacity="0.5">
<path opacity="0.5" d="M24 17.0003C22.9391 17.0003 21.9217 17.4218 21.1715 18.1719C20.4214 18.9221 20 19.9395 20 21.0003C20 22.6577 20.9934 24.0723 22.4294 24.679L20 33.0003H28L25.572 24.679C26.2942 24.3734 26.91 23.8611 27.342 23.2066C27.7739 22.5521 28.0029 21.7845 28 21.0003C28 19.9395 27.5786 18.9221 26.8285 18.1719C26.0783 17.4218 25.0609 17.0003 24 17.0003V17.0003Z" fill="white"/>
</g>
<path d="M24 16C22.9391 16 21.9217 16.4214 21.1715 17.1716C20.4214 17.9217 20 18.9391 20 20C20 21.6573 20.9934 23.072 22.4294 23.6787L20 32H28L25.572 23.6787C26.2942 23.373 26.91 22.8608 27.342 22.2063C27.7739 21.5518 28.0029 20.7842 28 20C28 18.9391 27.5786 17.9217 26.8285 17.1716C26.0783 16.4214 25.0609 16 24 16V16Z" fill="url(#paint7_linear_6:20)"/>
<path d="M24.002 16.5003C23.0737 16.5003 22.1835 16.8691 21.5271 17.5255C20.8707 18.1818 20.502 19.0721 20.502 20.0003C20.5027 20.7636 20.7529 21.5057 21.2144 22.1136C21.676 22.7215 22.3236 23.1618 23.0586 23.3675L20.6934 31.5003H27.3418L24.9531 23.3675C25.6867 23.1604 26.3326 22.7194 26.7926 22.1117C27.2527 21.5039 27.5017 20.7626 27.502 20.0003C27.502 19.0721 27.1332 18.1818 26.4768 17.5255C25.8205 16.8691 24.9302 16.5003 24.002 16.5003Z" stroke="black"/>
</g>
<defs>
<radialGradient id="paint0_radial_6:20" cx="0" cy="0" r="1" gradientUnits="userSpaceOnUse" gradientTransform="translate(24 42.7501) scale(18 5.25)">
<stop/>
<stop offset="1" stop-opacity="0"/>
</radialGradient>
<radialGradient id="paint1_radial_6:20" cx="0" cy="0" r="1" gradientUnits="userSpaceOnUse" gradientTransform="translate(24 44.2505) scale(12 3.74993)">
<stop/>
<stop offset="1" stop-opacity="0"/>
</radialGradient>
<linearGradient id="paint2_linear_6:20" x1="23.3779" y1="3.14392" x2="23.3779" y2="45.0746" gradientUnits="userSpaceOnUse">
<stop stop-color="white"/>
<stop offset="0.507761" stop-color="white" stop-opacity="0.235294"/>
<stop offset="0.834566" stop-color="white" stop-opacity="0.156863"/>
<stop offset="1" stop-color="white" stop-opacity="0.392157"/>
</linearGradient>
<linearGradient id="paint3_linear_6:20" x1="24" y1="68.7474" x2="24" y2="-15.8502" gradientUnits="userSpaceOnUse">
<stop stop-color="#333333"/>
<stop offset="1" stop-color="#1A1A1A"/>
</linearGradient>
<linearGradient id="paint4_linear_6:20" x1="24" y1="-0.513783" x2="24" y2="48.6622" gradientUnits="userSpaceOnUse">
<stop stop-color="#4D4D4D"/>
<stop offset="1" stop-color="#333333"/>
</linearGradient>
<linearGradient id="paint5_linear_6:20" x1="24.1875" y1="61.2641" x2="24.1875" y2="-9.54042" gradientUnits="userSpaceOnUse">
<stop stop-color="#ABACAE"/>
<stop offset="1" stop-color="#555761"/>
</linearGradient>
<linearGradient id="paint6_linear_6:20" x1="23.7746" y1="9.96837" x2="23.7746" y2="37.8017" gradientUnits="userSpaceOnUse">
<stop stop-color="white"/>
<stop offset="0.507761" stop-color="white" stop-opacity="0.235294"/>
<stop offset="0.834566" stop-color="white" stop-opacity="0.156863"/>
<stop offset="1" stop-color="white" stop-opacity="0.392157"/>
</linearGradient>
<linearGradient id="paint7_linear_6:20" x1="24" y1="16.5" x2="24" y2="31.5" gradientUnits="userSpaceOnUse">
<stop stop-color="#2D2D2D"/>
<stop offset="1" stop-color="#3F3F3F"/>
</linearGradient>
<clipPath id="clip0_6:20">
<rect width="48" height="48" fill="white"/>
</clipPath>
</defs>
</svg>
