<svg width="48" height="48" viewBox="0 0 48 48" fill="none" xmlns="http://www.w3.org/2000/svg">
<ellipse cx="19" cy="45" rx="17" ry="1" fill="url(#paint0_radial_1_30)" fill-opacity="0.18"/>
<ellipse cx="35" cy="40.5" rx="10" ry="2.5" fill="url(#paint1_radial_1_30)" fill-opacity="0.14"/>
<path d="M37 24H45C46.1046 24 47 24.8954 47 26V35C47 36.1046 46.1046 37 45 37H37V24Z" fill="#535353" fill-opacity="0.8"/>
<path d="M37.5 25.5H45C45.2761 25.5 45.5 25.7239 45.5 26V35C45.5 35.2761 45.2761 35.5 45 35.5H37.5V25.5Z" fill="url(#paint2_linear_1_30)" stroke="url(#paint3_linear_1_30)"/>
<rect x="1.5" y="8.5" width="35" height="36" rx="2.5" stroke="#535353" stroke-opacity="0.8"/>
<rect x="2.5" y="9.5" width="33" height="34" rx="1.5" fill="url(#paint4_linear_1_30)" stroke="url(#paint5_linear_1_30)"/>
<rect x="4" y="12" width="30" height="21" rx="2" fill="url(#paint6_linear_1_30)"/>
<rect x="4.5" y="12.5" width="29" height="20" rx="1.5" stroke="url(#paint7_linear_1_30)" stroke-opacity="0.9"/>
<path d="M3.99998 14V31C3.99998 32.1046 4.89541 33 5.99998 33H10.6666L27.3333 12H5.99998C4.89541 12 3.99998 12.8954 3.99998 14Z" fill="white" fill-opacity="0.1"/>
<path d="M39 17H44V27.5C44 28.8807 42.8807 30 41.5 30V30C40.1193 30 39 28.8807 39 27.5V17Z" fill="#555761" fill-opacity="0.8"/>
<path d="M40 17H43V27.5C43 28.3284 42.3284 29 41.5 29V29C40.6716 29 40 28.3284 40 27.5V17Z" fill="url(#paint8_radial_1_30)"/>
<path d="M41 17H42V27.5C42 27.7761 41.7761 28 41.5 28V28C41.2239 28 41 27.7761 41 27.5V17Z" fill="url(#paint9_linear_1_30)"/>
<circle cx="41.5" cy="13.5" r="6.5" fill="#007367" fill-opacity="0.8"/>
<circle cx="41.5" cy="13.5" r="5" fill="url(#paint10_radial_1_30)" stroke="url(#paint11_radial_1_30)"/>
<circle cx="7" cy="38" r="2" fill="#424242"/>
<path d="M8 38C8 38.5523 7.55228 39 7 39C6.44772 39 6 38.5523 6 38C6 37.4477 6.44772 37 7 37C7.55228 37 8 37.4477 8 38Z" fill="#555761"/>
<path d="M12.8343 19.2727H11.1L8.93945 20.6406V22.277L10.938 21.0241H10.9892V28H12.8343V19.2727ZM14.9086 28H21.1301V26.4915H17.4654V26.4318L18.7395 25.1832C20.5336 23.5469 21.0151 22.7287 21.0151 21.7358C21.0151 20.223 19.7793 19.1534 17.9086 19.1534C16.0762 19.1534 14.8191 20.2486 14.8233 21.9616H16.5748C16.5705 21.1264 17.0989 20.6151 17.8958 20.6151C18.6628 20.6151 19.2338 21.0923 19.2338 21.8594C19.2338 22.554 18.8077 23.0312 18.0151 23.794L14.9086 26.6705V28ZM25.693 28.1193C27.6532 28.1193 29.0552 27.0412 29.051 25.5497C29.0552 24.4631 28.3649 23.6875 27.0822 23.5256V23.4574C28.0581 23.2827 28.7314 22.5923 28.7271 21.6122C28.7314 20.2358 27.5254 19.1534 25.7186 19.1534C23.9288 19.1534 22.5822 20.2017 22.5566 21.7102H24.3251C24.3464 21.0455 24.9558 20.6151 25.71 20.6151C26.4558 20.6151 26.9544 21.0668 26.9501 21.723C26.9544 22.4091 26.3706 22.8736 25.5311 22.8736H24.7172V24.2287H25.5311C26.5197 24.2287 27.1376 24.723 27.1333 25.4261C27.1376 26.1207 26.541 26.598 25.6973 26.598C24.8833 26.598 24.274 26.1719 24.2399 25.5327H22.3819C22.4118 27.0582 23.7754 28.1193 25.693 28.1193Z" fill="#565656"/>
<path d="M12.8343 18.2727H11.1L8.93945 19.6406V21.277L10.938 20.0241H10.9892V27H12.8343V18.2727ZM14.9086 27H21.1301V25.4915H17.4654V25.4318L18.7395 24.1832C20.5336 22.5469 21.0151 21.7287 21.0151 20.7358C21.0151 19.223 19.7793 18.1534 17.9086 18.1534C16.0762 18.1534 14.8191 19.2486 14.8233 20.9616H16.5748C16.5705 20.1264 17.0989 19.6151 17.8958 19.6151C18.6628 19.6151 19.2338 20.0923 19.2338 20.8594C19.2338 21.554 18.8077 22.0312 18.0151 22.794L14.9086 25.6705V27ZM25.693 27.1193C27.6532 27.1193 29.0552 26.0412 29.051 24.5497C29.0552 23.4631 28.3649 22.6875 27.0822 22.5256V22.4574C28.0581 22.2827 28.7314 21.5923 28.7271 20.6122C28.7314 19.2358 27.5254 18.1534 25.7186 18.1534C23.9288 18.1534 22.5822 19.2017 22.5566 20.7102H24.3251C24.3464 20.0455 24.9558 19.6151 25.71 19.6151C26.4558 19.6151 26.9544 20.0668 26.9501 20.723C26.9544 21.4091 26.3706 21.8736 25.5311 21.8736H24.7172V23.2287H25.5311C26.5197 23.2287 27.1376 23.723 27.1333 24.4261C27.1376 25.1207 26.541 25.598 25.6973 25.598C24.8833 25.598 24.274 25.1719 24.2399 24.5327H22.3819C22.4118 26.0582 23.7754 27.1193 25.693 27.1193Z" fill="white"/>
<path d="M11 39H32C32 39.5523 31.5523 40 31 40H12C11.4477 40 11 39.5523 11 39Z" fill="#D4D4D4"/>
<path d="M11 39C11 38.4477 11.4477 38 12 38H31C31.5523 38 32 38.4477 32 39H11Z" fill="#555761"/>
<defs>
<radialGradient id="paint0_radial_1_30" cx="0" cy="0" r="1" gradientUnits="userSpaceOnUse" gradientTransform="translate(19 45) rotate(90) scale(1 17)">
<stop/>
<stop offset="1" stop-opacity="0"/>
</radialGradient>
<radialGradient id="paint1_radial_1_30" cx="0" cy="0" r="1" gradientUnits="userSpaceOnUse" gradientTransform="translate(35 40.5) rotate(90) scale(2.5 10)">
<stop/>
<stop offset="1" stop-opacity="0"/>
</radialGradient>
<linearGradient id="paint2_linear_1_30" x1="41.5" y1="25" x2="41.5" y2="36" gradientUnits="userSpaceOnUse">
<stop stop-color="#FAFAFA"/>
<stop offset="0.3125" stop-color="#C5C5C6"/>
<stop offset="0.703125" stop-color="#ABACAE"/>
<stop offset="1" stop-color="#7E8087"/>
</linearGradient>
<linearGradient id="paint3_linear_1_30" x1="41.5" y1="25" x2="41.5" y2="36" gradientUnits="userSpaceOnUse">
<stop stop-color="#FAFAFA"/>
<stop offset="0.1875" stop-color="#D4D4D4"/>
<stop offset="0.614583" stop-color="#ABACAE"/>
<stop offset="0.9375" stop-color="#7E8087"/>
</linearGradient>
<linearGradient id="paint4_linear_1_30" x1="19" y1="9" x2="19" y2="44" gradientUnits="userSpaceOnUse">
<stop stop-color="#D4D4D4"/>
<stop offset="1" stop-color="#ABACAE"/>
</linearGradient>
<linearGradient id="paint5_linear_1_30" x1="19" y1="9" x2="19" y2="44" gradientUnits="userSpaceOnUse">
<stop stop-color="#FAFAFA"/>
<stop offset="0.156065" stop-color="#D3D3D3"/>
<stop offset="0.794257" stop-color="#ACADAF"/>
<stop offset="1" stop-color="#7E8087"/>
</linearGradient>
<linearGradient id="paint6_linear_1_30" x1="19" y1="12" x2="19" y2="33" gradientUnits="userSpaceOnUse">
<stop stop-color="#333333"/>
<stop offset="1" stop-color="#1A1A1A"/>
</linearGradient>
<linearGradient id="paint7_linear_1_30" x1="19" y1="12" x2="19" y2="33" gradientUnits="userSpaceOnUse">
<stop stop-opacity="0.9"/>
<stop offset="1" stop-color="#1A1A1A" stop-opacity="0.9"/>
</linearGradient>
<radialGradient id="paint8_radial_1_30" cx="0" cy="0" r="1" gradientUnits="userSpaceOnUse" gradientTransform="translate(41.5 29) rotate(-90) scale(6.375 15.692)">
<stop offset="0.223958" stop-color="#95979B"/>
<stop offset="1" stop-color="#D4D4D4"/>
</radialGradient>
<linearGradient id="paint9_linear_1_30" x1="41.5" y1="18.5469" x2="41.5" y2="28" gradientUnits="userSpaceOnUse">
<stop offset="0.348958" stop-color="#D4D4D4"/>
<stop offset="1" stop-color="#ABACAE"/>
</linearGradient>
<radialGradient id="paint10_radial_1_30" cx="0" cy="0" r="1" gradientUnits="userSpaceOnUse" gradientTransform="translate(41.5 9.90385) rotate(90) scale(7.61538 11.8071)">
<stop stop-color="#43D6B5"/>
<stop offset="1" stop-color="#0E9A83"/>
</radialGradient>
<radialGradient id="paint11_radial_1_30" cx="0" cy="0" r="1" gradientUnits="userSpaceOnUse" gradientTransform="translate(41.5 10.1154) rotate(90) scale(8.88462)">
<stop stop-color="#89FFDD"/>
<stop offset="0.354167" stop-color="#43D6B5"/>
<stop offset="1" stop-color="#0E9A83"/>
</radialGradient>
</defs>
</svg>
