<svg width="64" height="64" viewBox="0 0 64 64" fill="none" xmlns="http://www.w3.org/2000/svg">
<ellipse cx="25.5" cy="60" rx="22.5" ry="2" fill="url(#paint0_radial_1_29)" fill-opacity="0.2"/>
<ellipse cx="48.5" cy="54.5" rx="12.5" ry="3.5" fill="url(#paint1_radial_1_29)" fill-opacity="0.16"/>
<path d="M49 31H59C60.6569 31 62 32.3431 62 34V44C62 45.6569 60.6569 47 59 47H49V31Z" fill="#535353" fill-opacity="0.8"/>
<path d="M49.5 32.5H59C59.8284 32.5 60.5 33.1716 60.5 34V44C60.5 44.8284 59.8284 45.5 59 45.5H49.5V32.5Z" fill="url(#paint2_linear_1_29)" stroke="url(#paint3_linear_1_29)"/>
<rect x="2.5" y="15.5" width="46" height="44" rx="2.5" stroke="#535353" stroke-opacity="0.8"/>
<rect x="3.5" y="16.5" width="44" height="42" rx="1.5" fill="url(#paint4_linear_1_29)" stroke="url(#paint5_linear_1_29)"/>
<rect x="6" y="20" width="39" height="24" rx="3" fill="url(#paint6_linear_1_29)"/>
<rect x="6.5" y="20.5" width="38" height="23" rx="2.5" stroke="url(#paint7_linear_1_29)" stroke-opacity="0.9"/>
<path d="M6 23V41C6 42.6569 7.34315 44 9 44H14.491L36.5676 20H9C7.34315 20 6 21.3431 6 23Z" fill="white" fill-opacity="0.1"/>
<path d="M52 24H58V36C58 37.6569 56.6569 39 55 39V39C53.3431 39 52 37.6569 52 36V24Z" fill="#555761" fill-opacity="0.8"/>
<path d="M53 23H57V36C57 37.1046 56.1046 38 55 38V38C53.8954 38 53 37.1046 53 36V23Z" fill="url(#paint8_radial_1_29)"/>
<path d="M54 24H56V36C56 36.5523 55.5523 37 55 37V37C54.4477 37 54 36.5523 54 36V24Z" fill="url(#paint9_linear_1_29)"/>
<circle cx="55" cy="18" r="9" fill="#007367" fill-opacity="0.8"/>
<circle cx="55" cy="18" r="7.5" fill="url(#paint10_radial_1_29)" stroke="url(#paint11_radial_1_29)"/>
<circle cx="9.5" cy="51.5" r="2.5" fill="#686970"/>
<circle cx="9.5" cy="50.5" r="2.5" fill="#424242"/>
<circle cx="9.5" cy="50.5" r="1.5" fill="#555761"/>
<path d="M13.7789 27.8182H12.2824L9.74192 29.4787V30.9503L12.178 29.3594H12.2377V38H13.7789V27.8182ZM16.5331 38H23.2348V36.6825H18.651V36.608L20.6744 34.4901C22.5388 32.6058 23.0708 31.706 23.0708 30.5675C23.0708 28.9318 21.7384 27.679 19.8193 27.679C17.9152 27.679 16.5232 28.9119 16.5232 30.7713H17.9898C17.9848 29.6776 18.6908 28.9616 19.7895 28.9616C20.8236 28.9616 21.6091 29.598 21.6091 30.6122C21.6091 31.5121 21.0722 32.1584 19.9784 33.3168L16.5331 36.8864V38ZM28.6638 38.1392C30.7419 38.1392 32.2682 36.8963 32.2632 35.206C32.2682 33.9183 31.4877 32.9936 30.1354 32.7848V32.7053C31.1993 32.4318 31.8904 31.5966 31.8854 30.4531C31.8904 28.9567 30.6624 27.679 28.7036 27.679C26.8343 27.679 25.3328 28.8075 25.2831 30.4631H26.7696C26.8044 29.5284 27.6844 28.9616 28.6837 28.9616C29.7227 28.9616 30.4039 29.593 30.3989 30.5327C30.4039 31.517 29.6134 32.1634 28.4848 32.1634H27.6247V33.4162H28.4848C29.8968 33.4162 30.7121 34.1321 30.7121 35.1562C30.7121 36.1456 29.852 36.8168 28.6539 36.8168C27.5502 36.8168 26.6901 36.25 26.6304 35.3452H25.0693C25.134 37.0057 26.6056 38.1392 28.6638 38.1392ZM37.5281 27.679C35.3904 27.6591 33.9933 29.1953 33.9933 31.1243C33.9983 33.0682 35.4053 34.4702 37.1702 34.4702C38.249 34.4702 39.1737 33.9432 39.6958 33.0881H39.7753C39.7703 35.4297 38.8904 36.7969 37.3989 36.7969C36.4244 36.7969 35.798 36.2003 35.5992 35.3303H34.0828C34.3066 36.9759 35.5793 38.1392 37.3989 38.1392C39.7654 38.1392 41.2469 36.1058 41.2469 32.5412C41.2419 28.8224 39.3428 27.6939 37.5281 27.679ZM37.5331 28.9716C38.7114 28.9716 39.5814 29.9709 39.5814 31.0895C39.5864 32.223 38.6666 33.2173 37.5033 33.2173C36.335 33.2173 35.4898 32.2827 35.4848 31.1044C35.4848 29.9212 36.3648 28.9716 37.5331 28.9716Z" fill="#565656"/>
<path d="M13.7789 26.8182H12.2824L9.74192 28.4787V29.9503L12.178 28.3594H12.2377V37H13.7789V26.8182ZM16.5331 37H23.2348V35.6825H18.651V35.608L20.6744 33.4901C22.5388 31.6058 23.0708 30.706 23.0708 29.5675C23.0708 27.9318 21.7384 26.679 19.8193 26.679C17.9152 26.679 16.5232 27.9119 16.5232 29.7713H17.9898C17.9848 28.6776 18.6908 27.9616 19.7895 27.9616C20.8236 27.9616 21.6091 28.598 21.6091 29.6122C21.6091 30.5121 21.0722 31.1584 19.9784 32.3168L16.5331 35.8864V37ZM28.6638 37.1392C30.7419 37.1392 32.2682 35.8963 32.2632 34.206C32.2682 32.9183 31.4877 31.9936 30.1354 31.7848V31.7053C31.1993 31.4318 31.8904 30.5966 31.8854 29.4531C31.8904 27.9567 30.6624 26.679 28.7036 26.679C26.8343 26.679 25.3328 27.8075 25.2831 29.4631H26.7696C26.8044 28.5284 27.6844 27.9616 28.6837 27.9616C29.7227 27.9616 30.4039 28.593 30.3989 29.5327C30.4039 30.517 29.6134 31.1634 28.4848 31.1634H27.6247V32.4162H28.4848C29.8968 32.4162 30.7121 33.1321 30.7121 34.1562C30.7121 35.1456 29.852 35.8168 28.6539 35.8168C27.5502 35.8168 26.6901 35.25 26.6304 34.3452H25.0693C25.134 36.0057 26.6056 37.1392 28.6638 37.1392ZM37.5281 26.679C35.3904 26.6591 33.9933 28.1953 33.9933 30.1243C33.9983 32.0682 35.4053 33.4702 37.1702 33.4702C38.249 33.4702 39.1737 32.9432 39.6958 32.0881H39.7753C39.7703 34.4297 38.8904 35.7969 37.3989 35.7969C36.4244 35.7969 35.798 35.2003 35.5992 34.3303H34.0828C34.3066 35.9759 35.5793 37.1392 37.3989 37.1392C39.7654 37.1392 41.2469 35.1058 41.2469 31.5412C41.2419 27.8224 39.3428 26.6939 37.5281 26.679ZM37.5331 27.9716C38.7114 27.9716 39.5814 28.9709 39.5814 30.0895C39.5864 31.223 38.6666 32.2173 37.5033 32.2173C36.335 32.2173 35.4898 31.2827 35.4848 30.1044C35.4848 28.9212 36.3648 27.9716 37.5331 27.9716Z" fill="white"/>
<path d="M15 52C15 51.4477 15.4477 51 16 51H43C43.5523 51 44 51.4477 44 52V52C44 52.5523 43.5523 53 43 53H16C15.4477 53 15 52.5523 15 52V52Z" fill="#D4D4D4"/>
<rect x="15" y="51" width="29" height="1" rx="0.5" fill="#555761"/>
<defs>
<radialGradient id="paint0_radial_1_29" cx="0" cy="0" r="1" gradientUnits="userSpaceOnUse" gradientTransform="translate(25.5 60) rotate(90) scale(2 22.5)">
<stop/>
<stop offset="1" stop-opacity="0"/>
</radialGradient>
<radialGradient id="paint1_radial_1_29" cx="0" cy="0" r="1" gradientUnits="userSpaceOnUse" gradientTransform="translate(48.5 54.5) rotate(90) scale(3.5 12.5)">
<stop/>
<stop offset="1" stop-opacity="0"/>
</radialGradient>
<linearGradient id="paint2_linear_1_29" x1="55" y1="32" x2="55" y2="46" gradientUnits="userSpaceOnUse">
<stop stop-color="#FAFAFA"/>
<stop offset="0.3125" stop-color="#C5C5C6"/>
<stop offset="0.703125" stop-color="#ABACAE"/>
<stop offset="1" stop-color="#7E8087"/>
</linearGradient>
<linearGradient id="paint3_linear_1_29" x1="55" y1="32" x2="55" y2="46" gradientUnits="userSpaceOnUse">
<stop stop-color="#FAFAFA"/>
<stop offset="0.1875" stop-color="#D4D4D4"/>
<stop offset="0.614583" stop-color="#ABACAE"/>
<stop offset="0.9375" stop-color="#7E8087"/>
</linearGradient>
<linearGradient id="paint4_linear_1_29" x1="25.5" y1="16" x2="25.5" y2="59" gradientUnits="userSpaceOnUse">
<stop stop-color="#D4D4D4"/>
<stop offset="1" stop-color="#ABACAE"/>
</linearGradient>
<linearGradient id="paint5_linear_1_29" x1="25.5" y1="16" x2="25.5" y2="59" gradientUnits="userSpaceOnUse">
<stop stop-color="#FAFAFA"/>
<stop offset="0.156065" stop-color="#D3D3D3"/>
<stop offset="0.794257" stop-color="#ACADAF"/>
<stop offset="1" stop-color="#7E8087"/>
</linearGradient>
<linearGradient id="paint6_linear_1_29" x1="25.5" y1="20" x2="25.5" y2="44" gradientUnits="userSpaceOnUse">
<stop stop-color="#333333"/>
<stop offset="1" stop-color="#1A1A1A"/>
</linearGradient>
<linearGradient id="paint7_linear_1_29" x1="25.5" y1="20" x2="25.5" y2="44" gradientUnits="userSpaceOnUse">
<stop stop-opacity="0.9"/>
<stop offset="1" stop-color="#1A1A1A" stop-opacity="0.9"/>
</linearGradient>
<radialGradient id="paint8_radial_1_29" cx="0" cy="0" r="1" gradientUnits="userSpaceOnUse" gradientTransform="translate(55 38) rotate(-90) scale(7.96875 20.9227)">
<stop offset="0.223958" stop-color="#95979B"/>
<stop offset="1" stop-color="#D4D4D4"/>
</radialGradient>
<linearGradient id="paint9_linear_1_29" x1="55" y1="25.8281" x2="55" y2="37" gradientUnits="userSpaceOnUse">
<stop offset="0.348958" stop-color="#D4D4D4"/>
<stop offset="1" stop-color="#ABACAE"/>
</linearGradient>
<radialGradient id="paint10_radial_1_29" cx="0" cy="0" r="1" gradientUnits="userSpaceOnUse" gradientTransform="translate(55 12.7692) rotate(90) scale(11.0769 17.1739)">
<stop stop-color="#43D6B5"/>
<stop offset="1" stop-color="#0E9A83"/>
</radialGradient>
<radialGradient id="paint11_radial_1_29" cx="0" cy="0" r="1" gradientUnits="userSpaceOnUse" gradientTransform="translate(55 13.0769) rotate(90) scale(12.9231)">
<stop stop-color="#89FFDD"/>
<stop offset="0.354167" stop-color="#43D6B5"/>
<stop offset="1" stop-color="#0E9A83"/>
</radialGradient>
</defs>
</svg>
