<svg width="64" height="64" viewBox="0 0 64 64" fill="none" xmlns="http://www.w3.org/2000/svg">
<ellipse cx="25.5" cy="60" rx="22.5" ry="2" fill="url(#paint0_radial_1_29)" fill-opacity="0.2"/>
<ellipse cx="48.5" cy="54.5" rx="12.5" ry="3.5" fill="url(#paint1_radial_1_29)" fill-opacity="0.16"/>
<path d="M49 31H59C60.6569 31 62 32.3431 62 34V44C62 45.6569 60.6569 47 59 47H49V31Z" fill="#535353" fill-opacity="0.8"/>
<path d="M49.5 32.5H59C59.8284 32.5 60.5 33.1716 60.5 34V44C60.5 44.8284 59.8284 45.5 59 45.5H49.5V32.5Z" fill="url(#paint2_linear_1_29)" stroke="url(#paint3_linear_1_29)"/>
<rect x="2.5" y="11.5" width="46" height="48" rx="2.5" stroke="#535353" stroke-opacity="0.8"/>
<rect x="3.5" y="12.5" width="44" height="46" rx="1.5" fill="url(#paint4_linear_1_29)" stroke="url(#paint5_linear_1_29)"/>
<rect x="6" y="17" width="39" height="27" rx="3" fill="url(#paint6_linear_1_29)"/>
<rect x="6.5" y="17.5" width="38" height="26" rx="2.5" stroke="url(#paint7_linear_1_29)" stroke-opacity="0.9"/>
<path d="M6 20V41C6 42.6569 7.34315 44 9 44H14.491L36.5676 17H9C7.34315 17 6 18.3431 6 20Z" fill="white" fill-opacity="0.1"/>
<path d="M52 24H58V36C58 37.6569 56.6569 39 55 39C53.3431 39 52 37.6569 52 36V24Z" fill="#555761" fill-opacity="0.8"/>
<path d="M53 23H57V36C57 37.1046 56.1046 38 55 38C53.8954 38 53 37.1046 53 36V23Z" fill="url(#paint8_radial_1_29)"/>
<path d="M54 24H56V36C56 36.5523 55.5523 37 55 37C54.4477 37 54 36.5523 54 36V24Z" fill="url(#paint9_linear_1_29)"/>
<circle cx="55" cy="18" r="9" fill="#007367" fill-opacity="0.8"/>
<circle cx="55" cy="18" r="7.5" fill="url(#paint10_radial_1_29)" stroke="url(#paint11_radial_1_29)"/>
<circle cx="9.5" cy="51.5" r="2.5" fill="#686970"/>
<circle cx="9.5" cy="50.5" r="2.5" fill="#424242"/>
<circle cx="9.5" cy="50.5" r="1.5" fill="#555761"/>
<path d="M17.2791 25.3636H14.9666L12.0859 27.1875V29.3693L14.7507 27.6989H14.8189V37H17.2791V25.3636ZM20.0447 37H28.3402V34.9886H23.4538V34.9091L25.1527 33.2443C27.5447 31.0625 28.1868 29.9716 28.1868 28.6477C28.1868 26.6307 26.5391 25.2045 24.0447 25.2045C21.6016 25.2045 19.9254 26.6648 19.9311 28.9489H22.2663C22.2607 27.8352 22.9652 27.1534 24.0277 27.1534C25.0504 27.1534 25.8118 27.7898 25.8118 28.8125C25.8118 29.7386 25.2436 30.375 24.1868 31.392L20.0447 35.2273V37ZM34.424 37.1591C37.0376 37.1591 38.907 35.7216 38.9013 33.733C38.907 32.2841 37.9865 31.25 36.2763 31.0341V30.9432C37.5774 30.7102 38.4751 29.7898 38.4695 28.483C38.4751 26.6477 36.8672 25.2045 34.4581 25.2045C32.0717 25.2045 30.2763 26.6023 30.2422 28.6136H32.6001C32.6286 27.7273 33.4411 27.1534 34.4467 27.1534C35.4411 27.1534 36.1058 27.7557 36.1001 28.6307C36.1058 29.5455 35.3274 30.1648 34.2081 30.1648H33.1229V31.9716H34.2081C35.5263 31.9716 36.3501 32.6307 36.3445 33.5682C36.3501 34.4943 35.5547 35.1307 34.4297 35.1307C33.3445 35.1307 32.532 34.5625 32.4865 33.7102H30.0092C30.049 35.7443 31.8672 37.1591 34.424 37.1591Z" fill="#565656"/>
<path d="M17.2791 24.3636H14.9666L12.0859 26.1875V28.3693L14.7507 26.6989H14.8189V36H17.2791V24.3636ZM20.0447 36H28.3402V33.9886H23.4538V33.9091L25.1527 32.2443C27.5447 30.0625 28.1868 28.9716 28.1868 27.6477C28.1868 25.6307 26.5391 24.2045 24.0447 24.2045C21.6016 24.2045 19.9254 25.6648 19.9311 27.9489H22.2663C22.2607 26.8352 22.9652 26.1534 24.0277 26.1534C25.0504 26.1534 25.8118 26.7898 25.8118 27.8125C25.8118 28.7386 25.2436 29.375 24.1868 30.392L20.0447 34.2273V36ZM34.424 36.1591C37.0376 36.1591 38.907 34.7216 38.9013 32.733C38.907 31.2841 37.9865 30.25 36.2763 30.0341V29.9432C37.5774 29.7102 38.4751 28.7898 38.4695 27.483C38.4751 25.6477 36.8672 24.2045 34.4581 24.2045C32.0717 24.2045 30.2763 25.6023 30.2422 27.6136H32.6001C32.6286 26.7273 33.4411 26.1534 34.4467 26.1534C35.4411 26.1534 36.1058 26.7557 36.1001 27.6307C36.1058 28.5455 35.3274 29.1648 34.2081 29.1648H33.1229V30.9716H34.2081C35.5263 30.9716 36.3501 31.6307 36.3445 32.5682C36.3501 33.4943 35.5547 34.1307 34.4297 34.1307C33.3445 34.1307 32.532 33.5625 32.4865 32.7102H30.0092C30.049 34.7443 31.8672 36.1591 34.424 36.1591Z" fill="white"/>
<path d="M15 52C15 51.4477 15.4477 51 16 51H43C43.5523 51 44 51.4477 44 52C44 52.5523 43.5523 53 43 53H16C15.4477 53 15 52.5523 15 52Z" fill="#D4D4D4"/>
<rect x="15" y="51" width="29" height="1" rx="0.5" fill="#555761"/>
<defs>
<radialGradient id="paint0_radial_1_29" cx="0" cy="0" r="1" gradientUnits="userSpaceOnUse" gradientTransform="translate(25.5 60) rotate(90) scale(2 22.5)">
<stop/>
<stop offset="1" stop-opacity="0"/>
</radialGradient>
<radialGradient id="paint1_radial_1_29" cx="0" cy="0" r="1" gradientUnits="userSpaceOnUse" gradientTransform="translate(48.5 54.5) rotate(90) scale(3.5 12.5)">
<stop/>
<stop offset="1" stop-opacity="0"/>
</radialGradient>
<linearGradient id="paint2_linear_1_29" x1="55" y1="32" x2="55" y2="46" gradientUnits="userSpaceOnUse">
<stop stop-color="#FAFAFA"/>
<stop offset="0.3125" stop-color="#C5C5C6"/>
<stop offset="0.703125" stop-color="#ABACAE"/>
<stop offset="1" stop-color="#7E8087"/>
</linearGradient>
<linearGradient id="paint3_linear_1_29" x1="55" y1="32" x2="55" y2="46" gradientUnits="userSpaceOnUse">
<stop stop-color="#FAFAFA"/>
<stop offset="0.1875" stop-color="#D4D4D4"/>
<stop offset="0.614583" stop-color="#ABACAE"/>
<stop offset="0.9375" stop-color="#7E8087"/>
</linearGradient>
<linearGradient id="paint4_linear_1_29" x1="25.5" y1="12" x2="25.5" y2="59" gradientUnits="userSpaceOnUse">
<stop stop-color="#D4D4D4"/>
<stop offset="1" stop-color="#ABACAE"/>
</linearGradient>
<linearGradient id="paint5_linear_1_29" x1="25.5" y1="12" x2="25.5" y2="59" gradientUnits="userSpaceOnUse">
<stop stop-color="#FAFAFA"/>
<stop offset="0.156065" stop-color="#D3D3D3"/>
<stop offset="0.794257" stop-color="#ACADAF"/>
<stop offset="1" stop-color="#7E8087"/>
</linearGradient>
<linearGradient id="paint6_linear_1_29" x1="25.5" y1="17" x2="25.5" y2="44" gradientUnits="userSpaceOnUse">
<stop stop-color="#333333"/>
<stop offset="1" stop-color="#1A1A1A"/>
</linearGradient>
<linearGradient id="paint7_linear_1_29" x1="25.5" y1="17" x2="25.5" y2="44" gradientUnits="userSpaceOnUse">
<stop stop-opacity="0.9"/>
<stop offset="1" stop-color="#1A1A1A" stop-opacity="0.9"/>
</linearGradient>
<radialGradient id="paint8_radial_1_29" cx="0" cy="0" r="1" gradientUnits="userSpaceOnUse" gradientTransform="translate(55 38) rotate(-90) scale(7.96875 20.9227)">
<stop offset="0.223958" stop-color="#95979B"/>
<stop offset="1" stop-color="#D4D4D4"/>
</radialGradient>
<linearGradient id="paint9_linear_1_29" x1="55" y1="25.8281" x2="55" y2="37" gradientUnits="userSpaceOnUse">
<stop offset="0.348958" stop-color="#D4D4D4"/>
<stop offset="1" stop-color="#ABACAE"/>
</linearGradient>
<radialGradient id="paint10_radial_1_29" cx="0" cy="0" r="1" gradientUnits="userSpaceOnUse" gradientTransform="translate(55 12.7692) rotate(90) scale(11.0769 17.1739)">
<stop stop-color="#43D6B5"/>
<stop offset="1" stop-color="#0E9A83"/>
</radialGradient>
<radialGradient id="paint11_radial_1_29" cx="0" cy="0" r="1" gradientUnits="userSpaceOnUse" gradientTransform="translate(55 13.0769) rotate(90) scale(12.9231)">
<stop stop-color="#89FFDD"/>
<stop offset="0.354167" stop-color="#43D6B5"/>
<stop offset="1" stop-color="#0E9A83"/>
</radialGradient>
</defs>
</svg>
