<svg width="64" height="64" viewBox="0 0 64 64" fill="none" xmlns="http://www.w3.org/2000/svg">
<g clip-path="url(#clip0_5:85)">
<path opacity="0.2" d="M56 57.0017C56.0006 57.9209 55.3803 58.8311 54.1744 59.6804C52.9686 60.5296 51.2009 61.3013 48.9722 61.9513C46.7435 62.6013 44.0976 63.117 41.1855 63.4688C38.2734 63.8206 35.1521 64.0016 32 64.0016C28.8479 64.0016 25.7266 63.8206 22.8145 63.4688C19.9024 63.117 17.2565 62.6013 15.0278 61.9513C12.7991 61.3013 11.0314 60.5296 9.82556 59.6804C8.61972 58.8311 7.99939 57.9209 8 57.0017C7.99939 56.0825 8.61972 55.1723 9.82556 54.323C11.0314 53.4738 12.7991 52.7021 15.0278 52.0521C17.2565 51.4021 19.9024 50.8864 22.8145 50.5346C25.7266 50.1828 28.8479 50.0018 32 50.0018C35.1521 50.0018 38.2734 50.1828 41.1855 50.5346C44.0976 50.8864 46.7435 51.4021 48.9722 52.0521C51.2009 52.7021 52.9686 53.4738 54.1744 54.323C55.3803 55.1723 56.0006 56.0825 56 57.0017Z" fill="url(#paint0_radial_5:85)"/>
<path opacity="0.4" d="M48 59.0017C48.0005 59.6583 47.5871 60.3084 46.7832 60.9151C45.9794 61.5217 44.8009 62.0729 43.3151 62.5373C41.8293 63.0016 40.0653 63.3699 38.1239 63.6212C36.1824 63.8725 34.1015 64.0018 32 64.0018C29.8985 64.0018 27.8176 63.8725 25.8761 63.6212C23.9347 63.3699 22.1707 63.0016 20.6849 62.5373C19.1991 62.0729 18.0206 61.5217 17.2168 60.9151C16.4129 60.3084 15.9995 59.6583 16 59.0017C15.9995 58.3451 16.4129 57.695 17.2168 57.0883C18.0206 56.4817 19.1991 55.9305 20.6849 55.4661C22.1707 55.0018 23.9347 54.6335 25.8761 54.3822C27.8176 54.1309 29.8985 54.0016 32 54.0016C34.1015 54.0016 36.1824 54.1309 38.1239 54.3822C40.0653 54.6335 41.8293 55.0018 43.3151 55.4661C44.8009 55.9305 45.9794 56.4817 46.7832 57.0883C47.5871 57.695 48.0005 58.3451 48 59.0017Z" fill="url(#paint1_radial_5:85)"/>
<path opacity="0.7" d="M60.5 31.999C60.5 47.7396 47.7392 60.5 32.0004 60.5C16.2601 60.5 3.5 47.7395 3.5 31.999C3.5 16.2591 16.2601 3.5 32.0004 3.5C47.7392 3.5 60.5 16.2591 60.5 31.999Z" stroke="url(#paint2_linear_5:85)" stroke-linecap="round" stroke-linejoin="round"/>
<path opacity="0.5" d="M3 32C3 15.9991 15.9991 3 32 3C48.0009 3 61 15.9991 61 32C61 48.0009 48.0009 61 32 61C15.9991 61 3 48.0009 3 32Z" stroke="#555761" stroke-linecap="round" stroke-linejoin="round"/>
<path d="M32.0008 55C19.2979 55 9 44.7018 9 32.0003C9 19.2976 19.298 9 32.0008 9C44.7032 9 55 19.2976 55 32.0003C55 44.7018 44.7032 55 32.0008 55Z" fill="url(#paint3_linear_5:85)"/>
<path fill-rule="evenodd" clip-rule="evenodd" d="M3 32.4996C3 16.4847 15.9843 3.50001 32.001 3.50001C48.0171 3.50001 61 16.4847 61 32.4996C61 48.516 48.0171 61.5 32.001 61.5C15.9844 61.5 3 48.516 3 32.4996ZM9 32.5003C9 45.2018 19.2979 55.5 32.0008 55.5C44.7032 55.5 55 45.2018 55 32.5003C55 19.7976 44.7032 9.5 32.0008 9.5C19.298 9.5 9 19.7976 9 32.5003Z" fill="black" fill-opacity="0.15"/>
<path d="M32.001 2.50001C15.432 2.50001 2 15.9324 2 32.4996H4C4 17.037 16.5365 4.50001 32.001 4.50001V2.50001ZM62 32.4996C62 15.9325 48.5694 2.50001 32.001 2.50001V4.50001C47.4647 4.50001 60 17.0369 60 32.4996H62ZM32.001 62.5C48.5694 62.5 62 49.0683 62 32.4996H60C60 47.9638 47.4647 60.5 32.001 60.5V62.5ZM2 32.4996C2 49.0683 15.4321 62.5 32.001 62.5V60.5C16.5367 60.5 4 47.9637 4 32.4996H2ZM32.0008 54.5C19.8501 54.5 10 44.6495 10 32.5003H8C8 45.7541 18.7456 56.5 32.0008 56.5V54.5ZM54 32.5003C54 44.6496 44.1509 54.5 32.0008 54.5V56.5C45.2555 56.5 56 45.754 56 32.5003H54ZM32.0008 10.5C44.1509 10.5 54 20.3499 54 32.5003H56C56 19.2454 45.2555 8.5 32.0008 8.5V10.5ZM10 32.5003C10 20.3499 19.8502 10.5 32.0008 10.5V8.5C18.7457 8.5 8 19.2453 8 32.5003H10Z" fill="black" fill-opacity="0.07"/>
<path fill-rule="evenodd" clip-rule="evenodd" d="M3 31.9996C3 15.9847 15.9843 3.00001 32.001 3.00001C48.0171 3.00001 61 15.9847 61 31.9996C61 48.016 48.0171 61 32.001 61C15.9844 61 3 48.016 3 31.9996ZM9 32.0003C9 44.7018 19.2979 55 32.0008 55C44.7032 55 55 44.7018 55 32.0003C55 19.2976 44.7032 9 32.0008 9C19.298 9 9 19.2976 9 32.0003Z" fill="url(#paint4_linear_5:85)"/>
<path d="M32.2507 51.5C21.6189 51.5 13 42.8808 13 32.2502C13 21.6187 21.619 13 32.2507 13C42.882 13 51.5 21.6187 51.5 32.2502C51.5 42.8808 42.882 51.5 32.2507 51.5Z" stroke="black" stroke-opacity="0.07" stroke-width="2" stroke-linecap="round" stroke-linejoin="round"/>
<path d="M32.2507 51C21.895 51 13.5 42.6047 13.5 32.2502C13.5 21.8948 21.8951 13.5 32.2507 13.5C42.6058 13.5 51 21.8948 51 32.2502C51 42.6047 42.6058 51 32.2507 51Z" stroke="black" stroke-opacity="0.15" stroke-linecap="round" stroke-linejoin="round"/>
<path d="M32.2507 51C21.6189 51 13 42.3808 13 31.7502C13 21.1187 21.619 12.5 32.2507 12.5C42.882 12.5 51.5 21.1187 51.5 31.7502C51.5 42.3808 42.882 51 32.2507 51Z" fill="url(#paint5_linear_5:85)"/>
<path opacity="0.7" d="M32.2507 50.5C21.895 50.5 13.5 42.1047 13.5 31.7502C13.5 21.3948 21.8951 13 32.2507 13C42.6058 13 51 21.3948 51 31.7502C51 42.1047 42.6058 50.5 32.2507 50.5Z" stroke="url(#paint6_linear_5:85)" stroke-opacity="0.5" stroke-linecap="round" stroke-linejoin="round"/>
<g opacity="0.5">
<path opacity="0.5" d="M32 22.0001C30.475 22.0001 29.0124 22.6059 27.9341 23.6842C26.8558 24.7625 26.25 26.2251 26.25 27.75C26.25 30.1325 27.678 32.166 29.7422 33.0381L26.25 45H37.75L34.2598 33.0381C35.2979 32.5988 36.1831 31.8624 36.804 30.9216C37.425 29.9807 37.7541 28.8773 37.75 27.75C37.75 26.2251 37.1442 24.7625 36.0659 23.6842C34.9875 22.6059 33.525 22.0001 32 22.0001Z" fill="white"/>
</g>
<path d="M32 21C30.475 21 29.0124 21.6058 27.9341 22.6842C26.8558 23.7625 26.25 25.225 26.25 26.75C26.25 29.1324 27.678 31.166 29.7422 32.0381L26.25 44H37.75L34.2598 32.0381C35.2979 31.5987 36.1831 30.8624 36.8041 29.9216C37.425 28.9807 37.7541 27.8773 37.75 26.75C37.75 25.225 37.1442 23.7625 36.0659 22.6842C34.9876 21.6058 33.525 21 32 21Z" fill="url(#paint7_linear_5:85)"/>
<path d="M32 21.5C30.6076 21.5 29.2723 22.0531 28.2877 23.0377C27.3031 24.0223 26.75 25.3576 26.75 26.75C26.7508 27.8523 27.0986 28.9263 27.744 29.8199C28.3893 30.7134 29.2996 31.3812 30.3457 31.7285L26.9453 43.5H37.0664L33.6582 31.7246C34.7029 31.3768 35.6119 30.7094 36.2565 29.8166C36.901 28.9239 37.2486 27.8511 37.25 26.75C37.25 25.3576 36.6969 24.0223 35.7123 23.0377C34.7277 22.0531 33.3924 21.5 32 21.5Z" stroke="black"/>
</g>
<defs>
<radialGradient id="paint0_radial_5:85" cx="0" cy="0" r="1" gradientUnits="userSpaceOnUse" gradientTransform="translate(32 57.0002) scale(24 7)">
<stop/>
<stop offset="1" stop-opacity="0"/>
</radialGradient>
<radialGradient id="paint1_radial_5:85" cx="0" cy="0" r="1" gradientUnits="userSpaceOnUse" gradientTransform="translate(32 59.0006) scale(16 4.9999)">
<stop/>
<stop offset="1" stop-opacity="0"/>
</radialGradient>
<linearGradient id="paint2_linear_5:85" x1="31.1706" y1="4.19189" x2="31.1706" y2="60.0995" gradientUnits="userSpaceOnUse">
<stop stop-color="white"/>
<stop offset="0.507761" stop-color="white" stop-opacity="0.235294"/>
<stop offset="0.834566" stop-color="white" stop-opacity="0.156863"/>
<stop offset="1" stop-color="white" stop-opacity="0.392157"/>
</linearGradient>
<linearGradient id="paint3_linear_5:85" x1="32" y1="91.6632" x2="32" y2="-21.1337" gradientUnits="userSpaceOnUse">
<stop stop-color="#333333"/>
<stop offset="1" stop-color="#1A1A1A"/>
</linearGradient>
<linearGradient id="paint4_linear_5:85" x1="32" y1="-1.85236" x2="32" y2="66.0574" gradientUnits="userSpaceOnUse">
<stop stop-color="#4D4D4D"/>
<stop offset="1" stop-color="#333333"/>
</linearGradient>
<linearGradient id="paint5_linear_5:85" x1="32.25" y1="81.6855" x2="32.25" y2="-12.7206" gradientUnits="userSpaceOnUse">
<stop stop-color="#ABACAE"/>
<stop offset="1" stop-color="#555761"/>
</linearGradient>
<linearGradient id="paint6_linear_5:85" x1="31.6994" y1="13.2912" x2="31.6994" y2="50.4022" gradientUnits="userSpaceOnUse">
<stop stop-color="white"/>
<stop offset="0.507761" stop-color="white" stop-opacity="0.235294"/>
<stop offset="0.834566" stop-color="white" stop-opacity="0.156863"/>
<stop offset="1" stop-color="white" stop-opacity="0.392157"/>
</linearGradient>
<linearGradient id="paint7_linear_5:85" x1="32" y1="21.7187" x2="32" y2="43.2812" gradientUnits="userSpaceOnUse">
<stop stop-color="#2D2D2D"/>
<stop offset="1" stop-color="#3F3F3F"/>
</linearGradient>
<clipPath id="clip0_5:85">
<rect width="64" height="64" fill="white"/>
</clipPath>
</defs>
</svg>
